<?xml version="1.0" standalone="no"?>
<!DOCTYPE svg PUBLIC "-//W3C//DTD SVG 20010904//EN"
 "http://www.w3.org/TR/2001/REC-SVG-20010904/DTD/svg10.dtd">
<svg version="1.0" xmlns="http://www.w3.org/2000/svg"
 width="1000.000000pt" height="1000.000000pt" viewBox="0 0 1000.000000 1000.000000"
 preserveAspectRatio="xMidYMid meet">
<metadata>
Created by potrace 1.11, written by Peter Selinger 2001-2013
</metadata>
<g transform="translate(0.000000,1000.000000) scale(0.100000,-0.100000)"
fill="#000000" stroke="none">
<path d="M5651 9966 c-16 -20 -33 -173 -31 -291 1 -55 1 -117 1 -139 -1 -21 3
-43 8 -50 17 -20 62 -149 66 -189 3 -20 10 -47 16 -59 11 -21 12 -56 6 -316
l-2 -82 -30 -5 c-16 -2 -64 -10 -105 -16 -102 -16 -158 -15 -266 5 -11 2 -39
7 -64 11 -25 4 -54 12 -65 18 -11 5 -35 9 -54 9 -19 -1 -66 5 -105 13 -142 29
-344 58 -496 70 -60 5 -513 5 -555 0 -105 -12 -245 -54 -435 -132 -187 -76
-277 -122 -407 -209 l-113 -75 -197 1 c-109 1 -218 2 -243 4 -25 2 -97 7 -160
10 -63 3 -127 8 -141 11 -35 7 -59 -19 -37 -41 22 -22 113 -30 463 -40 127 -3
231 -7 232 -8 1 -1 -46 -39 -105 -86 -111 -88 -389 -360 -528 -515 -92 -104
-145 -174 -199 -265 -21 -36 -62 -91 -92 -122 -52 -56 -67 -93 -39 -104 12 -4
9 -16 -11 -62 -14 -31 -36 -86 -48 -121 -15 -43 -42 -86 -82 -135 -85 -100
-166 -215 -231 -326 -38 -66 -83 -124 -148 -191 -52 -53 -94 -94 -94 -92 0 6
99 296 109 318 5 11 21 52 37 90 59 147 173 337 327 543 28 37 37 56 30 63
-10 10 -94 -101 -230 -301 -91 -134 -180 -339 -277 -638 -37 -114 -58 -160
-106 -232 -120 -183 -218 -424 -254 -625 -28 -150 -28 -406 -2 -550 22 -117
82 -326 131 -456 l36 -92 -23 -81 c-26 -98 -29 -149 -8 -153 19 -4 40 29 56
87 7 25 13 36 14 25 1 -11 3 -29 5 -40 2 -11 7 -42 10 -70 5 -41 29 -162 60
-311 3 -12 14 -52 26 -89 11 -37 17 -71 12 -75 -4 -4 -42 -22 -83 -40 -351
-151 -740 -404 -740 -482 0 -31 10 -39 64 -53 l39 -11 -124 -69 c-117 -66
-147 -95 -108 -103 9 -1 58 21 110 51 182 105 268 145 341 160 40 9 74 14 76
12 2 -1 -13 -13 -33 -25 -34 -21 -44 -49 -20 -57 6 -2 66 28 134 67 115 65
136 73 275 106 83 19 164 40 180 45 16 5 32 9 36 9 8 0 35 -89 29 -94 -2 -2
-51 -29 -109 -62 -58 -32 -118 -67 -135 -76 -92 -55 -372 -188 -386 -185 -20
5 -77 -38 -66 -49 16 -17 251 92 515 240 95 53 177 97 183 99 6 1 30 -64 55
-145 24 -81 62 -193 84 -249 33 -82 77 -240 105 -372 2 -9 11 -45 20 -80 9
-34 18 -78 21 -97 3 -19 16 -93 29 -165 13 -71 31 -186 40 -255 9 -69 18 -141
20 -160 11 -79 14 -110 20 -186 8 -90 10 -94 34 -94 21 0 30 24 26 67 -1 15
-6 63 -9 106 -4 43 -9 86 -10 95 -2 9 -7 44 -10 77 -4 33 -9 74 -11 90 -15
112 -25 183 -30 205 -3 14 -8 41 -11 60 -3 19 -19 100 -35 180 -16 80 -32 159
-35 175 -5 24 1 18 32 -30 20 -33 64 -95 96 -137 32 -43 51 -75 43 -72 -34 13
-13 -27 24 -45 30 -16 160 -132 234 -208 4 -4 53 -73 109 -153 179 -256 256
-329 528 -497 85 -52 162 -102 171 -109 14 -12 151 -82 289 -147 48 -22 143
-60 220 -87 68 -24 303 -74 455 -95 22 -4 47 -8 55 -10 8 -2 42 -7 75 -10 33
-4 71 -8 84 -10 13 -3 61 -7 105 -11 45 -3 87 -11 94 -17 9 -7 20 -7 36 1 12
5 79 11 147 12 68 1 138 3 154 5 17 2 65 6 108 10 43 4 88 8 100 10 117 19
192 25 307 23 122 -2 198 3 285 17 64 11 205 46 246 61 24 9 76 17 114 19 121
6 238 16 287 26 26 4 54 6 62 3 8 -3 18 -35 26 -82 19 -118 19 -121 41 -212
11 -47 23 -95 25 -108 8 -42 91 -287 109 -322 35 -70 74 -97 93 -64 6 11 14
-10 26 -73 27 -133 34 -153 58 -153 19 0 20 4 14 73 -3 39 -8 106 -11 147 l-5
75 25 -90 c42 -151 87 -279 103 -297 21 -24 38 -22 46 5 11 42 6 73 -43 247
-27 97 -61 223 -76 280 -71 278 -92 464 -33 283 89 -275 143 -446 159 -511 10
-41 25 -85 34 -98 22 -35 50 -31 47 6 -5 66 -14 142 -18 168 -4 19 -1 38 6 47
9 10 10 44 6 118 -4 57 -8 112 -10 124 -3 11 -7 36 -10 54 -9 56 -24 129 -45
224 -11 50 -18 99 -16 110 2 11 4 24 4 28 1 5 4 6 9 4 4 -3 43 -8 87 -11 80
-6 158 -14 205 -21 14 -2 45 -7 70 -10 25 -3 90 -13 145 -21 55 -9 114 -17
130 -20 47 -6 74 -12 84 -19 14 -8 41 23 35 40 -6 15 -30 25 -67 29 -12 2 -35
6 -52 9 -16 4 -50 9 -75 12 -48 7 -100 14 -140 20 -14 2 -63 9 -110 15 -47 6
-96 13 -110 15 -14 2 -65 6 -115 10 -49 4 -92 9 -95 12 -12 11 -26 114 -17
120 6 3 7 1 3 -5 -3 -6 -2 -13 4 -17 6 -3 26 10 45 31 38 40 138 101 290 176
352 175 560 385 772 778 24 44 55 75 154 155 68 54 214 189 325 300 l201 200
-32 -70 c-137 -297 -253 -472 -476 -712 -40 -43 -49 -63 -26 -63 15 1 221 243
304 359 67 93 190 325 271 511 28 63 70 158 94 210 114 243 203 506 224 660 3
25 7 54 9 65 2 11 6 47 10 80 4 33 9 69 11 80 2 10 6 51 10 90 9 107 8 106 74
211 129 204 430 606 563 751 41 45 44 73 8 73 -25 0 -34 -9 -203 -218 -136
-169 -269 -348 -375 -506 l-53 -80 4 80 c6 123 16 183 31 178 20 -8 26 12 14
43 -7 15 -13 87 -14 158 -2 116 -11 259 -20 304 -1 9 -6 41 -9 71 -12 99 -63
333 -100 459 -40 132 -130 389 -152 432 -13 25 -44 148 -44 173 0 8 29 28 65
47 96 49 84 78 -19 43 -26 -9 -50 -13 -53 -10 -4 4 -7 37 -7 74 -1 59 -4 68
-23 77 -15 6 -31 35 -53 95 -69 187 -187 414 -305 587 -14 21 -25 41 -25 45 0
4 -20 49 -45 100 l-45 93 66 -70 c90 -94 163 -185 274 -340 219 -305 274 -409
382 -720 32 -93 61 -176 64 -184 3 -9 8 -11 14 -5 8 8 -28 130 -82 284 -3 8
-14 38 -23 65 -27 77 -98 221 -155 315 -44 72 -253 375 -270 390 -3 3 -32 39
-65 80 -32 41 -104 121 -158 177 -82 84 -112 125 -178 238 -43 76 -97 163
-120 194 -88 117 -220 233 -479 420 -102 74 -282 165 -485 247 -93 37 -193 82
-221 100 -172 110 -438 208 -624 229 -30 4 -57 9 -59 11 -3 2 -6 45 -7 96 -2
50 -8 94 -13 97 -5 4 -11 42 -12 86 -2 82 -12 134 -28 144 -4 3 -11 27 -14 53
-10 80 -47 132 -101 142 -30 5 -98 -20 -149 -56 -32 -23 -48 -15 -50 23 -1 36
12 159 22 201 5 20 9 84 10 143 2 100 1 107 -18 112 -16 4 -20 12 -17 29 10
53 -24 85 -53 50z m282 -564 c15 -16 40 -102 32 -110 -2 -2 -13 1 -24 8 -17 8
-29 7 -56 -6 -19 -9 -35 -20 -35 -25 0 -5 -4 -9 -10 -9 -5 0 -9 23 -9 50 1 38
-3 54 -16 63 -15 12 -15 14 9 25 14 6 28 7 31 3 6 -11 45 -2 45 10 0 15 16 10
33 -9z m-157 -63 c-9 -36 -12 -38 -20 -20 -7 16 -4 26 9 41 10 11 19 20 20 20
1 0 -3 -18 -9 -41z m184 -104 c9 -11 11 -39 6 -113 -3 -53 -8 -108 -10 -122
-3 -14 -7 -51 -10 -84 -3 -32 -8 -61 -11 -64 -13 -13 -17 13 -21 115 -4 144
-13 216 -27 225 -18 12 -35 -19 -32 -57 1 -19 -2 -35 -7 -35 -4 0 -9 15 -10
33 0 17 -2 39 -3 47 -2 23 8 37 44 64 35 26 53 24 81 -9z m-97 -318 c2 -37 2
-65 -2 -62 -3 4 -8 38 -11 75 -3 38 -2 66 1 62 4 -4 9 -38 12 -75z m-116 31
c-3 -8 -6 -5 -6 6 -1 11 2 17 5 13 3 -3 4 -12 1 -19z m8 -62 c0 -20 -4 -39 -8
-43 -4 -3 -6 14 -5 39 2 25 6 44 9 42 3 -2 5 -19 4 -38z m-1110 -11 c72 -8 92
-21 32 -21 -51 0 -234 -12 -262 -18 -11 -2 -42 -7 -70 -10 -27 -4 -57 -9 -65
-11 -8 -2 -27 -6 -41 -9 -110 -19 -333 -101 -489 -181 -103 -53 -137 -62 -260
-70 -52 -3 -115 -8 -140 -10 -168 -14 -210 -16 -210 -12 0 8 112 79 193 121
45 24 156 72 247 108 317 126 327 128 705 123 165 -2 327 -6 360 -10z m300
-59 c55 -4 111 -8 125 -11 13 -2 42 -7 65 -11 22 -3 44 -10 50 -15 5 -5 17 -9
26 -9 10 0 20 -3 22 -7 3 -5 -72 -8 -166 -8 -183 -1 -251 -6 -387 -29 -47 -8
-101 -18 -120 -21 -19 -3 25 13 98 36 84 27 136 48 140 58 7 20 22 30 36 26 6
-2 56 -6 111 -9z m-245 -7 c-19 -6 -125 -39 -236 -75 -172 -55 -211 -64 -275
-64 -41 0 -105 -7 -144 -16 -181 -39 -209 -45 -224 -42 -18 4 166 84 279 121
65 22 149 41 265 62 17 3 59 8 95 11 36 4 66 7 68 9 2 1 49 3 105 3 84 1 96
-1 67 -9z m1488 -34 c99 -17 391 -113 350 -115 -4 0 -67 14 -140 30 -182 42
-263 60 -298 65 -19 2 -26 35 -8 35 7 0 50 -7 96 -15z m-538 -85 c18 -12 2
-12 -25 0 -13 6 -15 9 -5 9 8 0 22 -4 30 -9z m-500 -20 c11 -7 7 -9 -17 -7
-17 1 -29 5 -26 10 6 10 25 9 43 -3z m-323 -16 c-3 -3 -12 -4 -19 -1 -8 3 -5
6 6 6 11 1 17 -2 13 -5z m258 -4 c-4 -7 -65 -1 -65 6 0 3 15 4 34 2 19 -1 33
-5 31 -8z m1275 -21 c37 -11 76 -30 87 -41 18 -21 18 -21 -7 -6 -14 9 -55 26
-92 38 -38 13 -68 24 -68 26 0 7 10 5 80 -17z m-1380 7 c0 -9 -30 -14 -35 -6
-4 6 3 10 14 10 12 0 21 -2 21 -4z m-325 -16 c14 -6 -3 -9 -55 -10 -41 -1 -90
-3 -109 -6 -48 -6 -33 5 20 15 57 11 119 12 144 1z m1050 -48 c-9 -9 -71 9
-95 28 -24 19 -22 19 37 -2 35 -12 61 -24 58 -26z m-308 22 c-3 -3 -12 -4 -19
-1 -8 3 -5 6 6 6 11 1 17 -2 13 -5z m-554 -11 c-13 -2 -35 -2 -50 0 -16 2 -5
4 22 4 28 0 40 -2 28 -4z m1759 -42 c104 -45 240 -110 228 -111 -12 0 -240 79
-266 93 -41 22 -100 67 -87 67 6 0 62 -22 125 -49z m-2353 35 c-2 -2 -17 -6
-34 -10 -22 -5 -26 -4 -15 4 14 9 59 15 49 6z m2623 -113 c70 -53 85 -74 28
-38 -23 15 -92 51 -153 81 -61 30 -113 56 -115 59 -3 2 37 -10 89 -27 64 -21
112 -45 151 -75z m-415 22 c183 -68 289 -122 358 -181 36 -31 29 -28 -85 28
-145 73 -246 119 -385 176 -156 64 -83 49 112 -23z m-1512 46 c3 -5 -5 -13
-17 -16 -13 -4 -30 -13 -38 -20 -8 -8 -49 -16 -90 -20 -41 -3 -102 -10 -135
-16 -33 -5 -69 -9 -80 -8 -30 0 155 49 190 49 17 0 57 9 90 20 71 22 72 23 80
11z m-360 -31 c-38 -11 -101 -29 -140 -41 -74 -23 -252 -51 -238 -38 18 17
239 81 297 86 33 3 62 6 63 7 1 1 22 3 45 4 39 1 37 0 -27 -18z m-900 0 c-16
-5 -45 -13 -62 -18 -18 -6 -33 -9 -33 -6 0 9 67 32 95 32 l30 0 -30 -8z m1922
4 c-3 -3 -12 -4 -19 -1 -8 3 -5 6 6 6 11 1 17 -2 13 -5z m48 -12 c-3 -3 -11 0
-18 7 -9 10 -8 11 6 5 10 -3 15 -9 12 -12z m-2143 -8 c-12 -8 -68 -35 -125
-60 -56 -25 -115 -52 -131 -60 -16 -8 -33 -14 -37 -14 -4 0 -64 -24 -133 -54
-69 -29 -123 -50 -120 -45 8 13 172 103 264 144 106 48 259 104 285 105 18 0
18 -1 -3 -16z m-232 -21 c-19 -10 -83 -41 -142 -70 -59 -29 -107 -47 -105 -41
6 27 -24 15 -52 -21 -18 -22 -67 -64 -109 -94 -42 -30 -90 -67 -107 -82 -16
-14 -55 -42 -85 -62 -76 -50 -213 -154 -223 -170 -4 -7 -18 -18 -30 -24 -21
-11 119 136 248 261 75 72 191 171 294 249 86 66 69 62 276 68 l70 2 -35 -16z
m670 -1 c0 -4 -21 -16 -47 -25 -52 -19 -52 -15 -1 13 37 21 48 24 48 12z m154
-31 c-79 -33 -190 -62 -235 -60 -28 1 156 71 220 84 108 21 111 16 15 -24z
m-324 -1 c-14 -11 -28 -20 -32 -20 -4 0 -42 -21 -85 -46 -52 -31 -116 -57
-194 -80 -64 -19 -153 -49 -198 -68 -44 -19 -81 -32 -81 -30 0 10 292 146 440
206 60 24 137 50 170 57 3 0 -6 -8 -20 -19z m3416 -84 c143 -71 198 -104 326
-200 84 -64 183 -142 219 -174 73 -63 184 -198 231 -280 l30 -53 -128 100
c-71 56 -154 129 -184 164 -120 136 -289 261 -513 377 -44 23 -182 150 -163
150 5 0 87 -38 182 -84z m-2036 39 c30 -4 56 -8 58 -10 2 -1 -81 -3 -183 -3
-102 0 -185 1 -183 3 2 1 41 6 88 10 47 3 86 8 88 9 3 4 69 0 132 -9z m-1870
-46 c-14 -11 -79 -47 -145 -79 -67 -33 -164 -88 -217 -123 -93 -61 -111 -62
-52 -4 23 23 414 228 433 227 3 0 -5 -10 -19 -21z m680 -43 c-36 -11 -69 -24
-75 -28 -11 -6 -115 -38 -124 -38 -19 2 67 38 144 61 106 33 149 37 55 5z
m3007 -10 c138 -59 156 -71 204 -138 25 -34 49 -69 53 -76 4 -7 -43 24 -106
68 -119 86 -242 180 -234 180 2 0 40 -15 83 -34z m-1448 -1 c30 -4 82 -16 115
-28 l61 -22 3 -73 c3 -79 3 -79 -58 -62 -46 12 -190 37 -265 45 -33 4 -67 8
-75 10 -8 3 -40 7 -70 10 -57 6 -70 7 -205 24 -44 6 -102 13 -130 16 -27 3
-80 9 -116 13 -37 4 -82 8 -100 8 -29 -1 -34 -4 -34 -26 0 -27 13 -30 160 -45
33 -3 74 -8 90 -10 17 -2 55 -7 85 -10 30 -3 66 -8 80 -10 14 -2 48 -6 75 -10
42 -5 87 -10 230 -30 11 -1 44 -6 74 -10 30 -3 63 -9 75 -11 12 -2 35 -7 51
-9 83 -15 135 -29 136 -39 1 -15 5 -109 13 -361 9 -256 14 -393 21 -505 3 -47
7 -132 10 -190 3 -58 7 -134 10 -170 2 -36 7 -121 10 -190 3 -69 8 -141 10
-160 2 -19 7 -91 10 -160 3 -69 8 -147 10 -175 2 -27 7 -84 10 -125 3 -41 8
-86 10 -100 4 -31 17 -194 19 -238 l1 -34 -280 -93 c-376 -125 -487 -164 -705
-249 -102 -40 -250 -89 -330 -110 -80 -21 -155 -42 -168 -47 -13 -5 -31 -9
-40 -9 -29 1 194 79 656 230 138 45 254 86 257 90 3 5 1 11 -3 14 -18 11
-1019 -329 -1103 -375 -28 -14 -35 -4 -38 58 -3 71 -30 92 -51 39 -7 -16 -9
-10 -10 29 -1 28 -3 61 -4 75 -3 27 -16 195 -21 275 -2 28 -6 84 -10 125 -3
41 -8 104 -11 140 -2 36 -7 88 -9 117 -3 28 -7 89 -10 135 -5 102 -16 250 -20
286 -2 15 -7 74 -10 132 -4 58 -9 108 -12 113 -7 12 -43 8 -44 -5 -3 -27 -1
-87 5 -163 3 -44 9 -116 11 -160 3 -44 7 -100 10 -125 10 -84 14 -162 9 -157
-3 3 -6 7 -5 9 0 1 -4 21 -9 43 -6 22 -13 56 -16 75 -3 19 -10 42 -14 50 -4 8
-11 35 -15 60 -12 83 -15 95 -34 173 -10 43 -17 87 -14 96 6 22 -39 90 -70
105 -40 21 -52 14 -55 -32 -3 -37 -9 -47 -44 -72 -22 -16 -44 -27 -49 -24 -5
3 -9 -1 -9 -9 0 -8 -7 -28 -15 -43 -19 -38 -19 -50 6 -104 26 -56 26 -58 34
-167 3 -48 8 -108 10 -133 6 -62 13 -191 20 -340 16 -338 23 -410 41 -427 8
-8 14 -33 15 -56 1 -92 9 -243 13 -268 5 -24 0 -29 -57 -54 -34 -16 -125 -58
-202 -95 -77 -37 -171 -82 -210 -100 -38 -18 -151 -73 -250 -122 -99 -50 -254
-121 -345 -160 -91 -38 -230 -101 -310 -139 -110 -54 -351 -149 -375 -149 -1
0 -5 24 -9 53 -3 28 -9 75 -12 102 -3 28 -7 61 -9 75 -4 24 -8 75 -21 250 -10
123 -12 699 -3 780 4 41 11 100 14 130 3 30 8 78 11 105 3 28 14 97 24 155 10
58 21 119 24 135 2 17 9 53 16 80 6 28 14 61 16 75 13 70 92 305 125 372 11
20 51 79 90 130 39 51 80 106 92 122 92 124 294 367 412 496 309 336 599 574
991 814 87 53 297 126 679 237 347 100 332 98 730 94 193 -2 374 -7 404 -10z
m803 -24 c4 -4 -2 -8 -14 -8 -19 -2 -88 32 -88 42 0 5 93 -26 102 -34z m-1767
20 c-232 -64 -425 -120 -540 -159 -33 -11 -61 -19 -63 -18 -4 5 180 88 299
135 111 44 122 46 225 48 71 1 99 -1 79 -6z m2325 -17 c0 -8 -19 -13 -24 -6
-3 5 1 9 9 9 8 0 15 -2 15 -3z m-2770 -8 c0 -3 -62 -36 -137 -74 -76 -38 -192
-102 -258 -142 -66 -41 -178 -109 -249 -152 -162 -98 -253 -163 -419 -302
-371 -309 -670 -641 -833 -926 -27 -47 -90 -141 -142 -210 -51 -68 -91 -131
-90 -139 5 -23 40 -26 56 -5 14 18 14 18 8 -1 -49 -140 -94 -307 -110 -405 -3
-19 -14 -84 -25 -145 -11 -60 -22 -137 -26 -170 -3 -33 -8 -73 -10 -90 -10
-81 -17 -156 -20 -220 -5 -98 -6 -479 0 -545 2 -30 6 -107 10 -170 6 -117 12
-197 20 -260 3 -19 7 -53 9 -75 3 -22 8 -64 11 -93 7 -52 7 -52 -26 -66 -19
-8 -37 -12 -41 -10 -8 5 -69 260 -102 429 -27 135 -43 241 -52 335 -3 30 -7
69 -10 85 -13 83 -16 397 -5 480 12 91 64 306 102 425 70 217 245 673 277 721
20 31 103 127 183 214 108 115 148 175 194 290 23 58 26 75 17 98 -10 27 -7
33 66 109 99 103 230 231 307 298 120 105 389 299 530 382 227 134 547 276
763 337 1 1 2 -1 2 -3z m2885 -64 c95 -65 113 -81 65 -57 -37 18 -170 114
-170 122 0 6 9 0 105 -65z m-1145 39 c0 -6 -4 -13 -10 -16 -5 -3 -10 1 -10 9
0 9 5 16 10 16 6 0 10 -4 10 -9z m571 -17 c12 -15 11 -16 -11 -9 -46 14 -58
24 -29 25 15 0 33 -7 40 -16z m-3084 -38 c-98 -67 -381 -213 -369 -190 23 43
63 73 167 124 106 51 241 109 258 110 5 0 -21 -20 -56 -44z m2434 22 c5 -57 0
-130 -9 -124 -12 7 -15 136 -3 136 6 0 11 -6 12 -12z m-2601 -22 c0 -2 -7 -7
-16 -10 -8 -3 -12 -2 -9 4 6 10 25 14 25 6z m2667 -33 c-3 -10 -5 -4 -5 12 0
17 2 24 5 18 2 -7 2 -21 0 -30z m333 -5 c30 -12 87 -42 125 -68 179 -119 302
-174 403 -182 76 -6 198 -88 332 -222 106 -107 136 -146 84 -109 -45 32 -285
155 -423 218 -68 30 -135 64 -150 74 -40 28 -275 159 -372 207 -84 41 -86 43
-87 79 -1 31 1 36 16 30 9 -4 42 -16 72 -27z m1185 -66 c98 -67 228 -175 315
-261 36 -35 54 -55 40 -44 -41 34 -263 176 -316 202 -39 20 -58 39 -97 99 -26
40 -42 70 -35 66 7 -4 49 -32 93 -62z m-4600 -31 c-20 -27 -45 -56 -58 -64
-22 -15 -48 -38 -117 -100 -19 -18 -60 -49 -90 -69 -30 -20 -68 -47 -85 -60
-26 -19 -24 -16 12 27 75 90 197 201 282 259 46 31 85 56 87 56 2 0 -12 -22
-31 -49z m3502 -67 c57 -30 103 -57 103 -58 0 -2 -55 14 -121 35 -67 22 -127
39 -134 39 -14 0 -25 22 -25 51 0 18 2 19 37 4 21 -9 84 -41 140 -71z m-3329
2 c-13 -19 -39 -42 -58 -51 -19 -9 -60 -34 -90 -54 -127 -86 -140 -87 -55 -7
66 64 185 143 218 145 4 1 -3 -14 -15 -33z m2949 -61 c0 -8 -4 -12 -9 -9 -5 3
-6 10 -3 15 9 13 12 11 12 -6z m386 -36 c268 -90 446 -173 607 -283 396 -271
790 -640 1004 -940 57 -79 146 -227 146 -241 0 -6 -17 -17 -37 -24 -21 -8 -60
-24 -88 -37 -129 -58 -169 -74 -185 -74 -10 0 -49 -18 -86 -40 -38 -22 -89
-46 -114 -54 -200 -64 -664 -214 -743 -242 -55 -19 -110 -34 -125 -34 -22 0
-251 -87 -369 -141 -23 -10 -46 -19 -51 -19 -4 0 -9 20 -11 44 -1 25 -3 53 -5
63 -2 10 -7 54 -11 98 -3 44 -8 98 -10 120 -11 129 -19 192 -26 210 -8 19 -8
19 -15 -2 -13 -45 -22 -12 -24 89 -1 57 -3 128 -5 158 -2 30 -6 129 -10 220
-3 91 -8 194 -10 230 -11 172 -20 440 -19 575 3 385 3 375 20 375 9 0 84 -23
167 -51z m-3212 -28 c-31 -23 -90 -57 -76 -44 13 14 88 63 95 63 3 0 -6 -9
-19 -19z m2724 -223 c4 -79 9 -159 11 -178 9 -83 2 -235 -12 -249 -2 -2 -4 29
-5 70 -1 41 -2 94 -4 119 -2 25 -5 142 -8 260 -5 231 7 217 18 -22z m1834 166
c200 -138 291 -229 415 -419 95 -144 114 -174 103 -165 -3 3 -31 28 -62 54
-30 27 -76 78 -102 115 -83 117 -223 270 -345 377 -65 57 -115 104 -112 104 3
0 50 -30 103 -66z m-4729 12 c0 -2 -8 -10 -17 -17 -16 -13 -17 -12 -4 4 13 16
21 21 21 13z m-521 -43 c-13 -15 -27 -30 -30 -33 -8 -7 -129 -168 -158 -212
-14 -19 -33 -41 -43 -47 -18 -11 -18 -10 -7 11 36 68 139 205 191 253 63 59
87 73 47 28z m410 23 c-2 -2 -44 -38 -93 -80 -48 -42 -128 -115 -177 -163 -85
-82 -146 -129 -156 -119 -17 17 388 366 425 366 3 0 3 -2 1 -4z m4862 -95 c41
-42 83 -87 93 -101 10 -14 26 -34 35 -44 40 -48 -59 38 -109 95 -30 34 -73 83
-95 107 -62 70 -6 27 76 -57z m-226 9 c10 -11 16 -20 13 -20 -3 0 -13 9 -23
20 -10 11 -16 20 -13 20 3 0 13 -9 23 -20z m-1528 -97 c-2 -16 -4 -5 -4 22 0
28 2 40 4 28 2 -13 2 -35 0 -50z m2065 40 c86 -75 105 -95 127 -135 l23 -43
-24 25 c-154 159 -207 222 -126 153z m-5137 -32 c-10 -17 -85 -73 -80 -59 4 7
23 25 43 40 42 30 46 32 37 19z m4522 -136 c126 -134 126 -134 40 -75 -42 29
-92 71 -110 93 -17 22 -39 47 -47 56 -8 9 -26 29 -40 45 -47 55 96 -53 157
-119z m-219 16 c149 -88 164 -100 229 -181 96 -121 239 -231 305 -234 27 -1
43 -16 124 -118 181 -227 249 -328 288 -424 20 -50 36 -94 36 -97 0 -2 -9 -7
-20 -10 -11 -3 -20 -1 -20 4 0 9 -59 109 -117 197 -40 61 -171 226 -228 287
-94 102 -208 215 -290 289 -49 44 -97 88 -105 97 -8 8 -80 66 -160 129 -80 62
-147 115 -149 117 -2 1 -2 3 2 3 3 0 50 -26 105 -59z m-4438 15 c0 -2 -16 -23
-35 -46 -43 -52 -47 -43 -4 11 28 36 39 45 39 35z m5200 -61 c14 -19 14 -19
-3 -6 -10 8 -27 28 -39 45 l-21 31 24 -25 c13 -14 31 -34 39 -45z m-107 -137
c71 -88 166 -225 216 -313 43 -75 -118 103 -199 219 -152 219 -162 273 -17 94z
m-5682 85 c-5 -10 -17 -27 -26 -38 -16 -19 -16 -19 -4 5 13 27 29 50 36 50 2
0 -1 -8 -6 -17z m113 -38 c-16 -24 -44 -45 -60 -45 -6 0 66 68 74 70 1 0 -5
-11 -14 -25z m3657 -32 c2 -29 0 -56 -4 -59 -4 -4 -7 21 -7 56 0 75 7 77 11 3z
m1709 -50 c66 -67 78 -82 40 -50 -50 42 -91 83 -129 130 -32 40 1 11 89 -80z
m-5106 29 c-47 -58 -86 -110 -149 -197 -77 -105 -76 -105 -61 -54 7 24 11 49
9 56 -2 6 46 64 109 127 110 113 150 143 92 68z m-179 8 c-3 -5 -12 -10 -18
-10 -7 0 -6 4 3 10 19 12 23 12 15 0z m5436 -57 l24 -27 -32 23 c-33 23 -40
31 -25 31 5 0 19 -12 33 -27z m-145 -84 c10 -16 -89 57 -111 82 -11 12 8 1 42
-25 34 -26 65 -52 69 -57z m445 75 c13 -14 17 -23 9 -19 -13 5 -46 45 -37 45
2 0 14 -11 28 -26z m179 1 c14 -19 14 -19 -2 -6 -10 7 -18 18 -18 24 0 6 1 8
3 6 1 -2 9 -13 17 -24z m-2330 -17 c0 -13 2 -54 5 -93 l4 -70 -9 60 c-5 33
-11 75 -14 93 -3 17 -1 32 5 32 5 0 9 -10 9 -22z m2360 -28 c6 -11 8 -20 6
-20 -3 0 -10 9 -16 20 -6 11 -8 20 -6 20 3 0 10 -9 16 -20z m-231 -85 c0 -11
-25 20 -41 50 -5 11 2 7 16 -10 14 -16 25 -34 25 -40z m-5988 -44 c-25 -43
-47 -77 -49 -76 -10 8 44 118 66 134 15 11 28 21 28 21 1 0 -19 -35 -45 -79z
m6193 9 c34 -29 84 -135 130 -272 18 -54 32 -98 30 -98 -7 0 -91 145 -164 285
-88 169 -88 164 4 85z m-5837 -74 c-46 -92 -76 -132 -182 -248 l-58 -63 43 80
c76 140 231 357 239 334 2 -6 -17 -52 -42 -103z m5653 74 c6 -11 8 -20 6 -20
-3 0 -10 9 -16 20 -6 11 -8 20 -6 20 3 0 10 -9 16 -20z m-130 -77 c13 -21 19
-33 14 -28 -20 21 -84 104 -84 109 0 11 48 -44 70 -81z m-5735 -69 c-56 -109
-100 -173 -111 -161 -3 3 15 35 41 72 25 36 62 100 82 141 19 41 38 73 41 69
3 -3 -20 -58 -53 -121z m3732 88 c1 -32 0 -33 -7 -12 -11 33 -12 50 -2 50 4 0
8 -17 9 -38z m-4028 -29 c-31 -41 -69 -83 -69 -78 0 7 72 95 78 95 3 0 -2 -8
-9 -17z m6208 -50 c31 -53 59 -114 45 -98 -13 15 -84 145 -78 145 2 0 17 -21
33 -47z m68 -30 c15 -27 36 -63 47 -80 32 -54 12 -37 -23 20 -34 52 -61 107
-54 107 1 0 15 -21 30 -47z m-6286 -4 c-7 -19 -33 -53 -58 -76 -43 -40 -74
-58 -51 -30 5 6 33 42 62 79 29 37 53 66 55 64 2 -1 -2 -18 -8 -37z m6315
-244 c35 -71 67 -141 71 -155 9 -30 -93 122 -135 203 -17 32 -49 88 -72 125
-57 94 -57 95 12 22 49 -51 75 -92 124 -195z m376 -25 c48 -121 53 -140 42
-140 -9 0 -153 348 -152 367 1 15 73 -132 110 -227z m-2711 8 c1 -57 0 -101
-2 -98 -3 3 -7 54 -10 113 -2 60 -1 104 3 98 3 -6 7 -57 9 -113z m-4160 -64
c-51 -77 -90 -132 -87 -124 41 113 74 185 90 199 11 9 34 28 51 43 17 15 33
25 35 23 2 -1 -38 -65 -89 -141z m6631 52 c14 -34 16 -45 6 -37 -8 7 -22 33
-30 59 -20 58 -4 44 24 -22z m-6317 -83 c-36 -71 -71 -135 -78 -143 -7 -8 -40
-61 -75 -117 -34 -57 -64 -103 -67 -103 -15 0 51 149 105 235 48 75 173 255
178 255 2 0 -27 -57 -63 -127z m6318 -44 c21 -52 24 -69 14 -73 -11 -4 -21 7
-30 34 -1 3 -6 16 -12 30 -27 62 -53 131 -53 138 2 20 59 -70 81 -129z m-2408
51 c2 -25 0 -58 -4 -75 -5 -23 -7 -14 -9 35 -1 36 -3 73 -5 84 -2 11 0 15 5
10 5 -5 11 -29 13 -54z m-4309 -31 c-14 -41 -32 -87 -39 -104 -7 -16 -19 -47
-26 -67 -11 -33 -79 -131 -79 -115 0 28 157 374 165 365 3 -3 -6 -39 -21 -79z
m6906 15 c21 -49 24 -64 13 -64 -5 0 -15 25 -24 55 -9 30 -15 55 -12 55 2 0
13 -21 23 -46z m-7072 -196 c-58 -144 -129 -383 -158 -535 -29 -155 -38 -182
-34 -103 2 36 6 83 8 105 3 22 8 65 11 95 10 90 20 148 46 275 22 105 26 112
127 233 24 28 45 52 47 52 1 0 -20 -55 -47 -122z m398 85 c-8 -15 -15 -22 -16
-15 0 14 22 53 28 47 2 -2 -3 -16 -12 -32z m4027 -30 c2 -24 1 -41 -2 -38 -4
2 -8 20 -9 41 -2 20 -6 42 -9 48 -4 7 -2 8 5 1 5 -5 12 -29 15 -52z m2776 12
c0 -5 -4 -3 -9 5 -5 8 -9 22 -9 30 0 16 17 -16 18 -35z m-2554 4 c13 -87 25
-212 30 -319 3 -69 8 -165 11 -213 11 -147 10 -180 -3 -184 -10 -4 -13 16 -14
74 0 100 -8 160 -25 202 -11 25 -14 87 -13 253 1 203 4 248 14 187z m2475 11
c0 -5 -2 -10 -4 -10 -3 0 -8 5 -11 10 -3 6 -1 10 4 10 6 0 11 -4 11 -10z
m-4874 -27 c1 -10 4 -61 7 -113 6 -86 5 -92 -8 -69 -8 14 -15 44 -16 65 -3 46
-16 77 -30 69 -20 -13 -8 35 13 49 29 20 34 20 34 -1z m2268 -25 c13 -59 13
-186 0 -209 -12 -22 -13 -18 -14 46 -1 39 -2 96 -3 128 -2 57 8 77 17 35z
m-2167 -20 c-3 -8 -6 -5 -6 6 -1 11 2 17 5 13 3 -3 4 -12 1 -19z m2080 -45
c-3 -10 -5 -4 -5 12 0 17 2 24 5 18 2 -7 2 -21 0 -30z m-2053 -73 c11 -57 13
-95 7 -115 -9 -29 -9 -29 -11 -5 -1 14 -4 36 -6 50 -11 59 -20 170 -13 163 4
-5 14 -46 23 -93z m4581 60 c-3 -5 -12 -10 -18 -10 -7 0 -6 4 3 10 19 12 23
12 15 0z m-271 -49 c-5 -5 -20 -12 -34 -16 -23 -6 -23 -5 5 14 28 19 49 21 29
2z m-6413 -22 c-5 -13 -10 -19 -10 -12 -1 15 10 45 15 40 3 -2 0 -15 -5 -28z
m-257 -59 c-4 -16 -24 -76 -46 -132 -43 -115 -42 -96 4 64 17 59 34 105 39
102 5 -2 6 -18 3 -34z m-174 0 c-8 -28 -28 -149 -35 -210 -2 -14 -6 -47 -10
-75 -3 -27 -8 -68 -11 -89 -2 -22 -7 -112 -9 -200 -3 -89 -8 -169 -11 -178 -7
-22 -18 -82 -39 -208 -8 -45 -9 -273 -1 -325 3 -22 8 -67 11 -99 3 -33 9 -64
12 -70 4 -7 2 -8 -5 -1 -13 12 -67 182 -94 295 -22 91 -23 99 -37 200 -9 67
-7 312 3 365 3 17 9 46 12 65 12 68 14 78 39 164 29 99 59 175 117 291 53 105
75 134 58 75z m7150 20 c0 -5 -4 -10 -10 -10 -5 0 -10 5 -10 10 0 6 5 10 10
10 6 0 10 -4 10 -10z m-100 -46 c0 -8 -4 -12 -10 -9 -5 3 -10 13 -10 21 0 8 5
12 10 9 6 -3 10 -13 10 -21z m-6832 -19 c-6 -14 -13 -23 -15 -21 -5 5 15 46
22 46 3 0 -1 -11 -7 -25z m169 -29 c-24 -61 -36 -68 -16 -9 7 21 14 41 15 46
1 4 2 9 3 12 0 3 5 5 10 5 5 0 0 -24 -12 -54z m7068 -151 c5 -22 0 -17 -18 20
-13 28 -27 70 -31 95 -4 25 -9 56 -11 70 -6 33 53 -147 60 -185z m-483 163
c-9 -9 -12 -7 -12 12 0 19 3 21 12 12 9 -9 9 -15 0 -24z m-4537 -128 c3 -36 8
-80 11 -99 2 -18 7 -59 10 -90 3 -31 9 -82 13 -113 4 -32 4 -61 0 -65 -4 -4
-9 -20 -11 -35 -9 -68 -17 -29 -17 83 1 129 -6 210 -21 269 -5 19 -12 71 -15
115 -6 80 -6 80 9 40 9 -22 18 -69 21 -105z m4478 126 c6 -16 -11 -36 -30 -36
-17 0 -17 37 0 43 20 9 25 8 30 -7z m174 -58 c26 -74 82 -346 99 -478 1 -14 5
-38 8 -55 13 -71 34 -225 39 -280 2 -22 0 -51 -4 -65 -6 -23 -7 -22 -9 10 -4
57 -17 153 -34 250 -3 14 -12 68 -21 120 -9 52 -25 138 -36 190 -11 52 -23
106 -25 120 -3 14 -7 33 -10 42 -3 9 -6 25 -8 35 -2 10 -11 46 -20 79 -9 34
-16 69 -16 78 0 34 16 14 37 -46z m-2393 -99 c4 -130 -3 -130 -19 -1 -7 50 1
149 11 140 2 -3 6 -65 8 -139z m2120 98 c-5 -13 -17 -19 -224 -104 -127 -53
-215 -84 -200 -70 3 2 61 29 131 59 69 31 161 74 205 96 77 39 98 44 88 19z
m185 -14 c18 -65 68 -285 80 -348 21 -111 51 -280 56 -320 4 -22 8 -51 11 -65
2 -14 7 -52 10 -85 4 -33 8 -63 10 -66 2 -3 6 -50 9 -104 5 -76 4 -100 -7
-106 -20 -13 -23 -11 -24 19 -2 56 -16 264 -19 285 -4 26 -13 93 -20 162 -10
88 -16 129 -25 165 -5 19 -11 49 -14 65 -13 80 -30 158 -52 240 -29 105 -33
119 -40 163 -7 45 13 41 25 -5z m-2083 -34 c3 -29 4 -52 1 -49 -3 3 -8 30 -12
60 -4 30 -4 53 -1 49 3 -3 8 -30 12 -60z m2022 24 c6 -16 13 -50 17 -76 4 -27
8 -57 10 -67 2 -11 6 -45 10 -77 3 -32 8 -69 10 -83 2 -14 7 -72 10 -130 4
-58 8 -121 10 -140 12 -100 2 -736 -11 -749 -2 -2 -4 70 -4 160 0 311 -25 599
-85 969 -8 54 -10 89 -4 97 6 7 6 12 -1 15 -7 2 -14 21 -17 43 -4 30 -1 42 13
52 25 18 30 17 42 -14z m-328 -10 c-19 -9 -47 -23 -62 -30 -18 -9 -28 -10 -28
-3 0 13 77 50 105 50 14 0 9 -5 -15 -17z m-740 -3 c-8 -5 -19 -10 -25 -10 -5
0 -3 5 5 10 8 5 20 10 25 10 6 0 3 -5 -5 -10z m954 -37 c8 -30 -5 -42 -44 -44
-14 0 -34 -2 -45 -4 -11 -2 -38 -6 -60 -10 -22 -3 -51 -8 -65 -11 -22 -5 -22
-4 5 10 35 19 187 84 196 85 4 1 10 -11 13 -26z m-1027 11 c-3 -3 -12 -4 -19
-1 -8 3 -5 6 6 6 11 1 17 -2 13 -5z m-3140 -46 c-3 -8 -6 -5 -6 6 -1 11 2 17
5 13 3 -3 4 -12 1 -19z m-71 -21 c1 -7 5 -57 9 -112 4 -55 8 -113 10 -130 2
-16 7 -68 10 -115 4 -46 8 -95 10 -107 1 -13 -2 -23 -6 -23 -5 0 -9 10 -10 23
0 12 -2 31 -4 42 -5 35 -18 119 -21 145 -7 60 -13 302 -7 296 4 -4 8 -12 9
-19z m3844 13 c-8 -5 -19 -10 -25 -10 -5 0 -3 5 5 10 8 5 20 10 25 10 6 0 3
-5 -5 -10z m-5955 -42 c-11 -48 -57 -170 -62 -164 -5 5 59 196 65 196 2 0 0
-15 -3 -32z m6372 -69 c19 -131 24 -172 29 -204 2 -16 6 -43 8 -60 3 -16 8
-58 11 -93 4 -35 8 -72 10 -83 2 -10 7 -63 10 -116 3 -54 8 -123 11 -153 7
-78 6 -501 -1 -585 -8 -98 -30 -283 -41 -350 -3 -16 -7 -41 -9 -55 -2 -14 -11
-61 -20 -105 -9 -44 -18 -91 -21 -105 -39 -195 -110 -438 -181 -620 -109 -276
-209 -426 -443 -661 -213 -215 -276 -265 -448 -352 -158 -81 -341 -162 -348
-154 -6 6 -15 60 -30 182 -1 10 -12 84 -20 134 -2 13 -6 45 -10 70 -3 25 -7
57 -9 71 -2 14 -9 61 -15 106 -6 44 -12 89 -14 100 -2 10 -7 39 -10 64 -3 25
-8 56 -11 70 -4 23 -22 128 -29 175 -32 195 -48 251 -66 240 -14 -8 -17 5 -24
85 -4 41 -9 95 -11 120 -3 25 -7 79 -10 120 -13 188 -23 321 -30 395 -12 140
-17 204 -21 240 -7 76 -14 160 -19 215 -8 85 -14 150 -20 205 -3 28 -7 79 -10
115 -5 65 -12 135 -20 200 -3 19 -7 69 -11 110 -3 41 -7 86 -9 100 -2 14 -6
54 -10 90 l-7 65 34 13 c19 6 44 12 56 12 11 0 101 31 199 68 236 91 264 98
275 78 17 -30 66 -20 343 68 22 7 123 45 225 83 129 49 248 86 395 121 116 28
228 55 250 60 22 5 44 9 50 8 5 -2 15 -41 22 -87z m-322 41 c-79 -22 -81 -22
-72 -14 12 12 83 33 112 33 20 0 6 -7 -40 -19z m1054 -110 c18 -58 37 -120 43
-138 5 -18 8 -49 6 -68 -2 -19 0 -34 4 -34 4 0 9 6 9 13 2 16 18 -62 18 -88 1
-16 -2 -14 -14 9 -9 16 -13 36 -11 43 3 7 1 13 -4 13 -6 0 -10 -8 -11 -17 -1
-42 -20 29 -44 172 -14 83 -30 165 -35 184 -20 75 9 9 39 -89z m-7238 52 c-5
-27 -24 -83 -41 -123 l-31 -74 6 60 c5 54 61 202 73 191 2 -3 -1 -27 -7 -54z
m5224 48 c-3 -5 -12 -10 -18 -10 -7 0 -6 4 3 10 19 12 23 12 15 0z m645 1 c0
-10 -25 -21 -48 -21 -12 1 -10 5 8 15 29 17 40 18 40 6z m-710 -20 c-20 -12
-193 -61 -198 -56 -2 2 22 11 54 20 33 9 77 23 99 30 47 16 66 18 45 6z m800
-9 c-39 -17 -80 -34 -125 -51 -50 -18 -407 -112 -411 -108 -2 2 20 11 49 22
28 10 111 40 182 67 152 58 405 116 305 70z m1043 -81 c3 -18 3 -30 -1 -26
-10 10 -42 98 -42 115 1 24 37 -52 43 -89z m-7220 64 c-3 -9 -8 -14 -10 -11
-3 3 -2 9 2 15 9 16 15 13 8 -4z m-30 -95 c-16 -67 -34 -103 -26 -53 6 37 34
125 38 121 2 -2 -3 -33 -12 -68z m5197 61 c0 -5 -12 -12 -27 -16 -16 -3 -86
-24 -156 -47 -71 -22 -131 -38 -133 -35 -6 6 0 9 176 63 74 23 136 42 138 43
1 0 2 -3 2 -8z m415 -12 c-61 -23 -187 -60 -192 -55 -3 3 80 34 172 65 55 18
71 10 20 -10z m-40 -68 c-22 -21 -418 -172 -523 -199 -144 -37 -132 -25 23 23
66 20 138 47 160 58 31 16 324 124 345 126 2 1 0 -3 -5 -8z m1362 -33 c-3 -8
-6 -5 -6 6 -1 11 2 17 5 13 3 -3 4 -12 1 -19z m-1277 -2 c0 -2 -7 -7 -16 -10
-8 -3 -12 -2 -9 4 6 10 25 14 25 6z m5 -31 c-61 -21 -158 -43 -130 -30 21 10
171 53 185 53 8 0 -16 -10 -55 -23z m-895 11 c0 -2 -7 -7 -16 -10 -8 -3 -12
-2 -9 4 6 10 25 14 25 6z m2185 -49 c4 -23 9 -51 11 -62 5 -23 9 -57 19 -140
4 -33 9 -71 11 -85 2 -14 6 -61 10 -105 3 -44 8 -96 10 -115 9 -74 12 -438 4
-505 -16 -130 -21 -170 -26 -187 -3 -10 -7 -28 -9 -40 -11 -62 -14 -78 -30
-138 -16 -65 -91 -311 -102 -340 -4 -8 -7 -17 -8 -20 -4 -18 -29 -93 -45 -135
-102 -276 -124 -332 -131 -345 -15 -28 -9 -3 17 66 27 71 61 177 88 274 32
118 55 207 61 240 3 19 17 85 30 145 13 61 26 137 30 170 5 57 8 78 20 150 3
17 7 64 11 105 3 41 7 93 10 115 21 228 21 871 -1 985 -2 11 0 18 5 15 4 -3
11 -24 15 -48z m-7015 -169 c-10 -51 -21 -115 -24 -141 -4 -26 -11 -70 -16
-97 -5 -27 -12 -73 -15 -102 -12 -98 -17 -64 -11 62 3 69 8 134 10 145 2 11 7
47 10 80 7 57 14 102 21 135 2 8 4 19 4 23 1 4 9 3 20 -2 18 -10 18 -13 1
-103z m252 67 c-5 -35 -6 -37 -12 -15 -3 14 -2 33 4 42 13 22 14 20 8 -27z
m2192 -115 c4 -25 8 -63 11 -85 7 -66 15 -128 21 -164 8 -42 12 -162 6 -178
-13 -37 -22 -3 -22 80 0 50 -5 133 -10 182 -15 124 -17 150 -24 225 -4 52 -3
57 4 25 5 -22 11 -60 14 -85z m1951 111 c-11 -10 -117 -42 -122 -37 -5 4 99
45 117 45 8 1 10 -2 5 -8z m3041 -97 c9 -70 11 -168 3 -194 -6 -21 -7 -17 -9
20 -1 25 -3 59 -5 75 -9 68 -9 152 0 143 3 -3 8 -23 11 -44z m-4838 0 c-3 -14
-5 -12 -10 9 -3 19 -2 25 4 19 6 -6 8 -18 6 -28z m5050 -87 c5 -46 5 -74 -1
-68 -10 10 -26 169 -17 177 6 7 7 -1 18 -109z m-2808 88 c0 -8 -4 -15 -10 -15
-5 0 -10 7 -10 15 0 8 5 15 10 15 6 0 10 -7 10 -15z m-4629 -42 c-9 -15 -10
-14 -7 7 6 35 7 37 12 23 3 -7 1 -20 -5 -30z m4744 -88 c4 -49 9 -101 10 -115
3 -35 15 -159 20 -195 2 -16 6 -64 10 -105 3 -41 8 -91 10 -110 2 -19 7 -69
10 -110 3 -41 8 -91 10 -110 2 -19 7 -73 10 -120 4 -47 8 -96 10 -110 2 -14 6
-63 10 -110 3 -47 8 -103 10 -125 4 -37 9 -108 20 -280 3 -38 7 -97 10 -130 2
-33 7 -96 10 -140 3 -44 8 -92 10 -107 3 -16 2 -28 -3 -28 -5 0 -9 6 -9 13 -1
6 -13 80 -28 162 -41 232 -63 365 -69 420 -10 88 -27 248 -32 295 -2 25 -6 65
-9 90 -9 89 -14 136 -19 190 -12 118 -20 526 -16 780 2 96 15 67 25 -55z m-67
-42 c1 -80 0 -144 -2 -142 -10 9 -18 289 -9 289 5 0 10 -64 11 -147z m-43 7
c3 -69 8 -147 10 -175 1 -27 6 -106 9 -175 4 -69 9 -133 12 -142 3 -10 1 -18
-5 -18 -6 0 -11 19 -12 43 0 23 -2 53 -4 67 -1 14 -6 77 -9 140 -4 63 -9 135
-12 160 -13 127 -13 242 1 228 2 -2 6 -59 10 -128z m-428 106 c-10 -8 -55 -23
-100 -34 -45 -11 -91 -23 -102 -27 -17 -6 -18 -5 -4 4 10 6 58 22 109 36 51
13 95 27 98 30 3 3 8 5 11 5 3 0 -2 -7 -12 -14z m183 -24 c0 -15 -61 -42 -297
-136 -164 -66 -311 -125 -328 -132 -16 -7 -93 -38 -170 -69 -77 -31 -167 -68
-200 -82 -33 -14 -69 -29 -80 -33 -11 -5 -42 -18 -69 -29 -56 -24 -72 -27 -36
-6 30 17 21 20 -14 4 -14 -7 -23 -16 -20 -20 3 -5 -3 -6 -12 -2 -12 4 -15 3
-10 -5 5 -8 1 -10 -10 -5 -11 4 -15 3 -11 -4 5 -7 -1 -9 -15 -5 -16 4 -19 2
-13 -8 5 -8 4 -11 -2 -7 -6 4 -51 -12 -99 -34 -49 -22 -108 -49 -132 -60 -52
-24 -240 -99 -247 -99 -3 0 -5 8 -5 18 0 15 37 34 173 90 96 40 179 72 185 72
6 0 14 5 18 11 4 8 -1 9 -17 4 -18 -5 -21 -4 -9 4 8 6 22 8 31 5 23 -7 100 26
92 39 -3 6 -1 7 6 3 13 -8 171 51 171 64 0 4 6 8 13 7 34 -1 48 4 41 15 -4 6
-3 8 4 5 12 -8 44 2 38 12 -2 3 10 7 27 7 30 1 30 1 -14 -22 -24 -13 -40 -23
-36 -24 15 0 87 40 87 49 0 5 -6 12 -12 14 -10 4 -10 6 -1 6 6 1 15 -3 18 -9
3 -5 11 -10 16 -10 6 0 7 5 3 11 -4 7 -1 10 7 7 15 -5 172 68 177 83 2 5 8 7
13 3 5 -3 9 0 9 7 0 7 3 10 6 6 4 -3 45 13 93 37 47 24 158 69 246 101 88 32
205 75 260 95 117 45 125 46 125 22z m-690 -44 c-109 -42 -292 -100 -298 -94
-3 4 33 17 263 96 146 51 166 50 35 -2z m3638 -21 c5 -19 6 -51 2 -73 -7 -36
-8 -36 -9 -9 -1 17 -4 49 -7 73 -7 50 1 55 14 9z m-7428 -50 c0 -36 -6 -71
-13 -81 -11 -15 -12 -10 -7 38 3 31 7 59 8 61 1 3 2 14 2 25 0 11 2 20 5 20 3
0 5 -28 5 -63z m4481 23 c1 -22 2 -50 3 -62 3 -39 -20 -120 -54 -198 -37 -81
-44 -140 -30 -245 5 -33 10 -76 13 -95 3 -19 18 -89 35 -155 17 -66 33 -138
36 -160 4 -23 8 -52 11 -65 3 -13 7 -56 10 -94 3 -39 7 -91 9 -116 3 -25 8
-96 11 -159 4 -63 8 -129 10 -145 4 -39 13 -131 20 -216 3 -36 8 -81 10 -100
2 -19 6 -71 10 -115 3 -44 10 -107 15 -140 5 -33 11 -85 15 -115 3 -30 8 -66
11 -80 2 -14 6 -43 9 -65 2 -22 8 -71 14 -110 5 -38 13 -97 17 -130 3 -33 8
-67 9 -76 2 -9 6 -40 10 -70 3 -30 8 -65 10 -79 2 -14 9 -56 15 -95 6 -38 13
-82 15 -97 3 -16 7 -43 10 -60 3 -18 10 -58 15 -88 24 -136 24 -129 -7 -141
-45 -17 -422 -106 -523 -124 -19 -3 -66 -12 -105 -20 -89 -18 -117 -23 -185
-30 -30 -3 -100 -12 -155 -19 -96 -13 -236 -14 -320 -2 -22 3 -65 8 -95 11
-107 12 -273 34 -275 37 -5 5 -56 222 -75 318 -10 52 -21 134 -25 182 -3 47
-8 97 -10 110 -2 12 -6 64 -10 113 -3 50 -8 108 -10 130 -6 54 -13 136 -20
220 -3 39 -10 99 -15 135 -11 70 -38 292 -55 435 -3 28 -7 61 -10 75 -2 14 -7
52 -10 85 -3 33 -8 67 -10 75 -2 8 -6 40 -9 70 -6 55 -24 193 -31 240 -2 14
-7 46 -10 72 -3 26 -9 78 -15 115 -5 38 -12 91 -15 118 -4 28 -8 61 -10 75 -3
14 -7 56 -11 95 -4 38 -8 73 -10 76 -2 4 60 32 139 64 78 31 201 81 272 111
72 29 198 80 280 114 83 33 159 65 170 70 11 5 117 48 235 95 118 48 226 91
240 97 184 75 417 167 423 168 4 0 8 -18 8 -40z m-4377 -132 c-1 -27 -2 -89
-3 -140 0 -50 -3 -89 -5 -87 -5 5 -14 99 -22 212 -5 63 -3 96 7 120 l14 32 5
-45 c3 -25 4 -66 4 -92z m93 80 c-3 -7 -5 -2 -5 12 0 14 2 19 5 13 2 -7 2 -19
0 -25z m3634 16 c-25 -8 -47 -12 -49 -9 -5 5 56 23 78 23 8 0 -5 -6 -29 -14z
m3635 -92 c16 -97 2 -333 -31 -512 -33 -178 -34 -177 -30 55 2 121 6 227 9
235 3 8 8 53 10 100 3 47 8 117 12 155 8 75 13 69 30 -33z m-2921 41 c6 -83
17 -211 20 -232 5 -26 13 -204 20 -413 2 -70 6 -132 9 -136 6 -9 12 -65 21
-187 4 -44 9 -87 11 -97 3 -9 0 -19 -6 -23 -6 -3 -10 4 -11 17 0 13 -2 30 -3
38 -2 8 -7 44 -11 80 -4 36 -9 74 -11 85 -1 11 -6 47 -9 80 -3 33 -8 67 -10
75 -3 15 -10 100 -21 275 -6 108 -11 183 -20 290 -6 76 -8 135 -5 180 2 29 24
2 26 -32z m-705 10 c-8 -2 -24 -8 -35 -13 -43 -19 -156 -61 -280 -105 -71 -25
-141 -51 -155 -56 -67 -29 -388 -141 -410 -145 -14 -2 -70 -17 -125 -33 -54
-17 -101 -29 -103 -27 -2 2 30 16 70 31 40 15 206 81 369 146 196 78 333 127
405 143 60 14 138 34 174 44 56 17 134 30 90 15z m-700 -21 c0 -6 -423 -152
-443 -152 -4 0 -7 8 -7 18 0 16 24 25 138 56 75 21 173 48 217 61 95 27 95 27
95 17z m-2938 -37 c2 -19 0 -35 -4 -35 -4 0 -8 16 -8 35 0 19 2 35 4 35 2 0 6
-16 8 -35z m7380 -77 c2 -36 1 -65 -3 -63 -3 3 -6 37 -7 77 -1 88 5 79 10 -14z
m-3876 27 c-11 -8 -25 -15 -30 -15 -6 1 0 7 14 15 32 19 40 18 16 0z m-3495
-32 c0 -21 2 -55 4 -75 7 -85 17 -174 20 -193 2 -11 7 -42 10 -70 8 -63 50
-283 77 -395 11 -47 21 -92 23 -100 12 -54 24 -97 30 -112 5 -12 3 -18 -7 -18
-13 0 -28 46 -44 127 -1 6 -11 53 -22 105 -12 51 -23 107 -27 123 -3 17 -8 41
-10 55 -15 74 -36 201 -41 245 -3 28 -7 55 -9 62 -4 11 -10 95 -19 241 -2 23
1 42 6 42 4 0 8 -17 9 -37z m-300 -29 c1 -21 -8 -59 -20 -84 -25 -54 -27 -34
-5 61 17 77 23 83 25 23z m3120 10 c-57 -19 -106 -32 -108 -30 -4 4 126 52
162 59 59 13 39 2 -54 -29z m1464 -50 c3 -43 8 -113 11 -154 3 -41 7 -97 9
-125 5 -78 16 -207 20 -240 2 -16 7 -79 10 -140 4 -60 8 -116 10 -125 2 -9 6
-65 10 -125 3 -61 8 -121 10 -135 2 -14 7 -68 10 -120 3 -52 8 -111 10 -130 2
-19 7 -82 10 -140 4 -58 8 -116 10 -130 5 -35 17 -204 28 -385 5 -71 4 -80 -3
-40 -5 28 -12 73 -15 100 -4 28 -8 61 -10 75 -8 55 -21 185 -30 290 -3 36 -8
85 -10 110 -4 41 -8 90 -20 210 -2 25 -7 97 -10 160 -4 63 -8 131 -10 150 -2
19 -6 71 -10 115 -3 44 -8 91 -10 105 -3 14 -7 41 -10 60 -3 19 -17 82 -31
140 -37 152 -51 239 -53 328 -2 69 2 87 28 146 17 36 31 72 31 78 0 6 2 9 5 6
3 -2 7 -40 10 -84z m-4481 -15 l3 -84 -14 63 c-8 35 -12 75 -8 89 10 40 15 22
19 -68z m3616 81 c-8 -5 -19 -10 -25 -10 -5 0 -3 5 5 10 8 5 20 10 25 10 6 0
3 -5 -5 -10z m3415 -215 c3 -59 -27 -272 -49 -343 -3 -9 -8 -33 -11 -52 -26
-159 -301 -987 -305 -917 0 5 6 23 14 40 8 18 33 86 57 152 23 66 45 129 50
140 10 24 109 340 114 364 2 9 11 48 20 86 20 82 23 97 30 145 3 20 7 46 10
59 17 87 23 167 25 336 l1 140 20 -45 c11 -25 22 -72 24 -105z m542 98 c-3
-10 -5 -2 -5 17 0 19 2 27 5 18 2 -10 2 -26 0 -35z m-4617 7 c-8 -5 -19 -10
-25 -10 -5 0 -3 5 5 10 8 5 20 10 25 10 6 0 3 -5 -5 -10z m-604 -15 c-4 -24
-16 -30 -16 -7 0 12 4 22 9 22 5 0 8 -7 7 -15z m-2389 -17 c-3 -8 -6 -5 -6 6
-1 11 2 17 5 13 3 -3 4 -12 1 -19z m2914 2 c-24 -11 -46 -20 -50 -20 -12 1 64
39 79 39 8 0 -5 -8 -29 -19z m4306 -2 c-3 -8 -6 -5 -6 6 -1 11 2 17 5 13 3 -3
4 -12 1 -19z m-4892 -8 c4 -6 -11 -18 -32 -26 -50 -21 -225 -84 -232 -84 -10
1 233 118 246 119 6 1 15 -4 18 -9z m-2292 -122 c31 -126 31 -129 43 -213 4
-33 8 -62 9 -65 5 -21 16 -82 20 -115 4 -22 8 -47 10 -55 2 -8 7 -29 9 -46 5
-26 40 -165 62 -241 4 -15 0 -24 -15 -33 -12 -6 -25 -9 -30 -6 -7 5 -29 83
-46 162 -2 10 -10 51 -18 89 -31 143 -65 380 -73 505 -3 47 -7 95 -9 108 -2
12 0 22 4 22 4 0 19 -51 34 -112z m7149 90 c-7 -7 -12 -8 -12 -2 0 14 12 26
19 19 2 -3 -1 -11 -7 -17z m-7234 -20 c6 -38 8 -418 3 -448 -5 -31 -10 -20
-37 86 -39 154 -39 234 -1 317 27 59 32 66 35 45z m3202 2 c-8 -5 -19 -10 -25
-10 -5 0 -3 5 5 10 8 5 20 10 25 10 6 0 3 -5 -5 -10z m4040 -10 c0 -5 -5 -10
-11 -10 -5 0 -7 5 -4 10 3 6 8 10 11 10 2 0 4 -4 4 -10z m-5010 -74 c-74 -29
-191 -74 -260 -99 -69 -24 -134 -48 -145 -52 -11 -5 -17 -5 -13 0 10 10 518
203 538 204 8 0 -46 -23 -120 -53z m630 35 c-63 -26 -97 -35 -87 -25 10 11 97
42 117 43 8 0 -5 -8 -30 -18z m249 15 c-17 -16 -325 -134 -332 -127 -5 5 10
16 35 25 23 8 97 35 163 60 111 41 145 52 134 42z m4118 -48 c-2 -13 -4 -5 -4
17 -1 22 1 32 4 23 2 -10 2 -28 0 -40z m-2392 -123 c4 -49 5 -88 2 -85 -3 3
-8 46 -12 95 -4 50 -5 88 -2 85 3 -3 8 -45 12 -95z m-2446 71 c-7 -7 -79 -35
-79 -31 0 7 54 34 69 35 8 0 12 -2 10 -4z m5158 -58 c-3 -7 -5 -2 -5 12 0 14
2 19 5 13 2 -7 2 -19 0 -25z m-5147 -21 c0 -12 -59 -41 -67 -33 -3 3 52 41 65
45 1 1 2 -5 2 -12z m5175 -64 c-4 -43 -8 -89 -11 -103 -2 -14 -6 -47 -9 -75
-16 -135 -36 -199 -93 -292 -31 -50 -58 -91 -59 -90 -5 5 36 148 60 214 22 58
74 230 81 267 1 6 8 44 16 84 7 39 15 72 17 72 2 0 1 -35 -2 -77z m-29 55 c-3
-7 -12 -53 -22 -102 -10 -49 -19 -85 -21 -79 -2 6 3 41 12 78 8 36 15 77 15
91 0 13 4 24 10 24 5 0 8 -6 6 -12z m-2749 -60 c-3 -8 -6 -5 -6 6 -1 11 2 17
5 13 3 -3 4 -12 1 -19z m2418 12 c3 -5 1 -10 -4 -10 -6 0 -11 5 -11 10 0 6 2
10 4 10 3 0 8 -4 11 -10z m-4824 -18 c-20 -14 -367 -162 -380 -162 -2 0 25 19
60 41 90 59 207 110 287 125 8 1 16 5 20 8 3 3 12 6 21 5 12 0 9 -5 -8 -17z
m4823 -46 c2 -20 -2 -55 -9 -79 l-14 -42 0 45 c-1 49 9 123 16 117 2 -3 5 -21
7 -41z m-7180 -16 c6 -59 53 -310 71 -381 24 -93 17 -90 -26 11 -58 136 -66
167 -64 251 1 41 3 96 4 123 1 59 8 57 15 -4z m4769 -17 c2 -29 1 -53 -3 -53
-4 0 -7 28 -8 63 -1 72 4 66 11 -10z m47 58 c0 -6 -4 -12 -8 -15 -5 -3 -9 1
-9 9 0 8 4 15 9 15 4 0 8 -4 8 -9z m-2440 -9 c0 -4 -19 -15 -42 -24 -46 -18
-286 -116 -408 -168 -103 -43 -109 -45 -74 -22 17 11 41 23 55 27 21 6 86 33
194 79 17 8 73 31 125 52 52 21 106 44 120 51 30 15 30 15 30 5z m57 -24 c-3
-7 -5 -2 -5 12 0 14 2 19 5 13 2 -7 2 -19 0 -25z m-47 -12 c0 -8 -17 -20 -37
-27 -21 -6 -42 -14 -48 -18 -5 -3 -14 -6 -20 -8 -9 -2 -261 -96 -295 -110 -8
-3 -17 -7 -20 -7 -3 -1 -24 -9 -45 -18 -77 -32 -208 -78 -212 -75 -2 3 21 14
52 27 30 12 52 26 49 31 -3 5 1 7 8 4 7 -3 130 44 273 104 143 60 268 110 278
110 9 1 17 -5 17 -13z m-495 -16 c-22 -10 -44 -18 -50 -18 -5 0 8 8 30 19 22
10 45 18 50 18 6 0 -8 -9 -30 -19z m503 -60 c2 -14 21 -99 43 -189 21 -90 41
-189 44 -220 3 -31 7 -72 10 -91 2 -19 7 -71 10 -115 4 -44 9 -91 10 -105 2
-14 6 -68 10 -120 3 -52 8 -106 10 -120 2 -14 7 -68 10 -120 4 -52 8 -106 10
-120 2 -14 6 -59 10 -100 3 -41 8 -91 10 -110 2 -19 7 -69 10 -110 3 -41 8
-96 10 -122 6 -59 13 -134 20 -213 3 -33 8 -80 10 -105 3 -25 7 -80 10 -122 4
-43 8 -86 9 -95 2 -10 7 -47 11 -83 4 -36 9 -74 11 -85 2 -10 6 -37 9 -60 3
-22 8 -48 11 -57 7 -23 7 -23 -121 16 -402 123 -802 301 -972 432 -215 167
-224 176 -356 379 -96 147 -234 278 -293 278 -63 0 -166 224 -248 537 l-32
125 126 73 c130 77 158 91 349 173 106 46 114 48 126 32 13 -17 16 -17 57 4
45 23 81 44 183 103 64 37 850 339 875 337 8 -1 16 -13 18 -27z m-2185 0 c3
-11 1 -18 -4 -14 -5 3 -9 12 -9 20 0 20 7 17 13 -6z m4570 -67 c4 -35 2 -63
-2 -63 -4 0 -9 30 -10 67 -2 83 5 80 12 -4z m-4550 -62 c-7 -10 -13 9 -18 55
l-5 49 13 -50 c7 -27 12 -52 10 -54z m1497 85 c0 -7 -203 -111 -275 -141 -38
-16 -74 -32 -80 -36 -5 -3 -73 -34 -150 -69 -77 -34 -162 -72 -190 -85 -27
-13 -75 -35 -105 -48 -30 -14 -89 -41 -131 -61 -68 -31 -158 -60 -166 -52 -4
3 370 186 381 186 4 0 22 6 39 14 18 8 66 29 107 46 105 45 499 218 535 235
35 16 35 16 35 11z m5343 -43 c-30 -186 -106 -438 -149 -496 -14 -19 -16 -19
-9 -2 37 103 62 185 101 330 25 94 47 176 49 183 8 22 12 13 8 -15z m323 -11
c-2 -9 -7 -39 -11 -67 -6 -46 -100 -343 -112 -355 -14 -14 8 79 45 191 23 69
47 156 54 192 7 36 16 64 20 61 4 -2 5 -12 4 -22z m-7153 -79 c9 -51 2 -53
-11 -3 -5 22 -6 40 -2 40 4 0 10 -17 13 -37z m1387 33 c0 -8 -85 -59 -121 -71
-21 -8 -39 -13 -39 -11 0 2 24 16 53 32 28 15 63 33 77 41 27 14 30 15 30 9z
m-665 -46 c-3 -5 -11 -10 -16 -10 -5 0 -82 -36 -171 -80 -89 -44 -166 -79
-172 -77 -6 2 54 37 134 77 176 88 240 114 225 90z m235 -16 c0 -14 -44 -37
-297 -155 -46 -21 -83 -35 -83 -33 0 3 38 23 85 45 48 22 85 45 85 53 0 8 12
19 28 24 15 6 61 27 102 46 88 42 80 40 80 20z m5993 -79 c-3 -9 -8 -14 -10
-11 -3 3 -2 9 2 15 9 16 15 13 8 -4z m-5908 -11 c-27 -20 -310 -158 -358 -173
-62 -21 -53 -6 15 24 74 33 255 117 313 144 49 24 56 25 30 5z m130 8 c-12
-10 -134 -62 -143 -61 -9 1 130 67 143 68 5 1 5 -2 0 -7z m6131 -26 c-2 -14
-10 -68 -17 -120 -7 -53 -16 -96 -19 -96 -4 0 -4 19 0 43 4 23 11 70 14 104 6
61 14 93 22 93 3 0 2 -11 0 -24z m-6295 -59 c-10 -9 -11 -8 -5 6 3 10 9 15 12
12 3 -3 0 -11 -7 -18z m-686 -6 c-6 -4 -23 -11 -40 -15 l-30 -6 25 15 c27 16
60 21 45 6z m631 -16 c-11 -8 -25 -15 -30 -15 -6 1 0 7 14 15 32 19 40 18 16
0z m3688 -90 c3 -33 8 -71 10 -85 2 -14 7 -46 10 -71 4 -25 9 -59 12 -75 3
-16 7 -42 9 -59 2 -16 8 -52 13 -80 5 -27 11 -86 11 -129 1 -44 5 -84 8 -90 4
-7 2 -8 -5 -1 -9 9 -16 48 -27 145 -2 14 -5 39 -8 55 -3 17 -8 53 -12 80 -3
28 -7 61 -10 75 -23 136 -40 337 -25 310 4 -8 10 -42 14 -75z m-4674 40 c0 -2
-9 -9 -20 -15 -12 -6 -20 -7 -20 -1 0 5 8 12 18 14 9 3 18 5 20 6 1 0 2 -1 2
-4z m6945 -111 c-32 -95 -66 -176 -72 -170 -8 8 29 133 60 202 40 89 47 71 12
-32z m-6930 76 c-11 -5 -27 -9 -35 -9 -9 0 -8 4 5 9 11 5 27 9 35 9 9 0 8 -4
-5 -9z m2568 -10 c3 -11 1 -20 -4 -20 -5 0 -9 9 -9 20 0 11 2 20 4 20 2 0 6
-9 9 -20z m-1963 -35 c-39 -22 -78 -35 -100 -35 -31 1 -33 2 -15 12 25 15 145
56 165 57 8 0 -14 -15 -50 -34z m3817 -17 c-2 -13 -4 -5 -4 17 -1 22 1 32 4
23 2 -10 2 -28 0 -40z m-1832 -132 c8 -68 12 -99 19 -154 5 -35 10 -75 21
-179 10 -88 17 -146 20 -162 1 -9 6 -45 10 -81 3 -36 8 -72 10 -80 2 -8 6 -55
10 -105 3 -49 8 -97 10 -105 2 -8 6 -55 10 -105 3 -49 8 -97 10 -105 2 -8 7
-55 10 -104 4 -49 8 -98 10 -110 2 -11 6 -58 10 -103 3 -45 7 -90 9 -100 2
-10 7 -36 11 -58 4 -22 9 -51 11 -65 10 -53 56 -255 61 -262 2 -5 -5 -8 -16
-8 -12 0 -21 3 -22 8 -1 8 -3 22 -29 172 -11 63 -22 129 -24 145 -3 17 -7 44
-10 60 -3 17 -8 59 -11 95 -3 36 -7 85 -10 110 -3 25 -10 97 -15 160 -6 63
-13 131 -15 150 -2 19 -6 60 -9 90 -15 153 -28 265 -31 270 -1 3 -6 39 -10 80
-3 41 -8 82 -10 90 -2 8 -7 43 -10 77 -4 35 -8 75 -10 90 -2 16 -6 64 -10 108
-4 44 -9 88 -11 98 -1 10 -6 62 -9 115 -4 53 -7 99 -7 102 0 3 1 10 2 15 3 12
16 -66 25 -149z m-2845 127 c0 -5 -37 -20 -82 -35 -93 -31 -95 -26 -5 13 65
29 87 34 87 22z m7505 -15 c-2 -7 -6 -29 -9 -48 -3 -19 -10 -60 -16 -90 -6
-30 -13 -68 -16 -85 -18 -104 -81 -279 -151 -420 -42 -84 -129 -206 -194 -275
-35 -36 -54 -51 -44 -35 179 286 298 543 379 815 47 157 44 150 50 150 3 0 3
-6 1 -12z m28 -39 c-6 -6 -7 3 -4 23 4 28 6 29 9 9 2 -13 0 -27 -5 -32z
m-6917 26 c-11 -8 -24 -15 -30 -15 -5 0 -1 7 10 15 10 8 24 14 29 14 6 0 1 -6
-9 -14z m4071 -12 c1 -10 4 -31 8 -48 7 -38 13 -124 18 -300 5 -149 -5 -103
-17 80 -8 113 -15 193 -21 248 -2 20 -1 37 3 37 4 0 8 -8 9 -17z m2638 -184
c-124 -255 -174 -335 -130 -208 15 42 217 410 223 404 1 -1 -40 -89 -93 -196z
m-6610 156 c-16 -7 -32 -11 -35 -9 -7 8 17 20 42 21 20 1 19 -1 -7 -12z m-410
-5 c-3 -5 -12 -10 -18 -10 -7 0 -6 4 3 10 19 12 23 12 15 0z m345 -10 c0 -15
-38 -32 -45 -20 -3 5 -3 15 0 20 8 13 45 13 45 0z m-753 -27 c-9 -9 -87 -43
-87 -38 0 6 72 44 84 45 5 0 6 -3 3 -7z m631 -24 c-3 -8 -7 -3 -11 10 -4 17
-3 21 5 13 5 -5 8 -16 6 -23z m-32 -6 c-4 -24 -26 -29 -26 -5 0 10 3 22 6 25
11 10 22 -2 20 -20z m-663 -50 c-31 -30 -104 -78 -217 -140 -94 -52 -180 -103
-191 -113 -41 -37 -89 -53 -158 -53 -100 -1 -103 13 -24 88 67 63 151 110 334
186 106 45 112 46 89 20 -31 -34 -2 -30 99 14 55 23 103 43 107 44 4 1 -13
-20 -39 -46z m721 -4 c-3 -5 -10 -7 -15 -3 -5 3 -7 10 -3 15 3 5 10 7 15 3 5
-3 7 -10 3 -15z m148 -117 c20 -76 40 -147 44 -157 4 -11 4 -17 -1 -13 -4 4
-31 71 -60 150 -50 134 -54 157 -25 158 3 0 22 -62 42 -138z m-358 113 c7 -20
-21 -32 -37 -16 -9 9 -8 14 3 21 21 13 27 12 34 -5z m171 -13 c0 -18 -20 -15
-23 4 -3 10 1 15 10 12 7 -3 13 -10 13 -16z m90 -84 c14 -40 31 -84 37 -98 6
-14 14 -36 18 -50 4 -14 20 -52 34 -85 l27 -60 -45 50 c-39 43 -51 68 -85 174
-22 69 -38 128 -35 133 12 19 24 4 49 -64z m-60 -2 c27 -76 25 -91 -5 -36 -31
58 -37 84 -19 78 6 -2 17 -21 24 -42z m6791 -28 c-65 -172 -78 -199 -94 -189
-9 5 6 43 50 129 35 67 64 122 65 122 2 0 -8 -28 -21 -62z m-7231 33 c-6 -5
-26 -12 -45 -15 l-35 -6 35 14 c42 17 58 20 45 7z m261 -18 c-10 -10 -19 5
-10 18 6 11 8 11 12 0 2 -7 1 -15 -2 -18z m4441 -10 c-3 -10 -5 -4 -5 12 0 17
2 24 5 18 2 -7 2 -21 0 -30z m-4946 2 c-23 -14 -50 -25 -60 -25 -19 1 67 49
89 49 8 1 -5 -10 -29 -24z m532 -35 c3 -11 1 -18 -4 -14 -5 3 -9 12 -9 20 0
20 7 17 13 -6z m4430 -65 c4 -54 4 -61 -3 -30 -9 40 -13 112 -6 104 2 -2 6
-35 9 -74z m-4465 22 c11 -19 27 -47 37 -63 l17 -29 -20 25 c-24 29 -66 100
-59 100 3 0 14 -15 25 -33z m-665 -8 c-23 -11 -57 -22 -75 -25 -26 -4 -22 0
22 19 30 14 64 25 75 25 12 0 3 -7 -22 -19z m7240 9 c-5 -7 -20 -39 -33 -70
-12 -32 -26 -58 -30 -58 -4 0 -10 -12 -13 -27 -11 -57 -146 -276 -234 -380
-10 -12 -36 -45 -58 -72 -69 -86 -58 -56 18 52 94 132 189 283 267 427 62 114
78 140 87 140 3 0 1 -6 -4 -12z m-1989 -183 c8 -49 30 -159 50 -245 8 -36 17
-94 20 -130 10 -125 18 -205 25 -258 10 -63 0 -57 -22 13 -17 52 -62 291 -71
380 -4 28 -8 70 -11 95 -8 62 -13 129 -19 240 l-5 95 13 -75 c8 -41 17 -93 20
-115z m1998 93 c-11 -24 -27 -52 -36 -63 -9 -11 -1 10 16 47 18 37 34 66 36
63 2 -2 -5 -23 -16 -47z m-1875 -10 c-3 -7 -5 -2 -5 12 0 14 2 19 5 13 2 -7 2
-19 0 -25z m1589 -5 c-8 -15 -15 -25 -16 -21 0 12 23 58 27 54 3 -2 -2 -17
-11 -33z m-6112 -73 c5 -18 1 -15 -12 10 -11 19 -22 46 -26 60 -5 18 -1 15 12
-10 11 -19 22 -46 26 -60z m2213 18 c-3 -7 -5 -2 -5 12 0 14 2 19 5 13 2 -7 2
-19 0 -25z m51 7 c-3 -3 -9 2 -12 12 -6 14 -5 15 5 6 7 -7 10 -15 7 -18z
m4287 -78 c-15 -36 -33 -71 -40 -77 -8 -7 -1 15 14 47 16 32 32 68 36 81 4 13
9 21 11 19 3 -3 -7 -34 -21 -70z m99 -23 c-113 -220 -311 -511 -348 -511 -11
0 -7 11 16 41 61 82 139 207 194 314 33 66 80 139 117 181 33 39 62 69 64 68
1 -2 -18 -44 -43 -93z m-6806 51 c-3 -3 -9 2 -12 12 -6 14 -5 15 5 6 7 -7 10
-15 7 -18z m2385 -32 c8 -59 25 -171 31 -198 2 -11 7 -56 11 -100 3 -44 8 -93
10 -110 2 -16 7 -61 10 -100 3 -38 8 -90 10 -115 3 -25 7 -72 10 -105 3 -33 7
-76 9 -95 13 -106 15 -167 6 -180 -5 -8 -10 -13 -11 -10 -3 20 -8 64 -13 120
-3 36 -8 83 -10 106 -3 23 -8 72 -11 110 -3 38 -7 85 -10 104 -2 19 -7 71 -10
115 -4 44 -8 96 -10 115 -4 33 -10 101 -20 200 -2 25 -7 77 -11 115 -3 39 -9
74 -12 79 -3 5 -1 6 5 3 6 -4 13 -28 16 -54z m45 1 c-3 -14 -5 -12 -10 9 -3
19 -2 25 4 19 6 -6 8 -18 6 -28z m1946 -79 c7 -116 10 -156 22 -270 3 -38 8
-83 9 -100 1 -16 6 -60 10 -96 4 -37 8 -87 10 -110 1 -24 6 -75 10 -114 4 -38
4 -67 1 -64 -6 6 -22 129 -41 314 -3 33 -8 78 -10 100 -12 113 -29 462 -22
455 2 -3 8 -54 11 -115z m-4383 -50 c96 -177 387 -765 378 -765 -35 0 -226
259 -312 420 -31 59 -53 121 -72 200 -26 108 -63 239 -81 285 -16 42 8 3 87
-140z m175 13 c25 -48 8 -31 -50 50 -55 75 -55 76 -11 27 25 -27 52 -62 61
-77z m221 45 c19 -30 33 -56 31 -58 -1 -2 -22 26 -46 62 -24 36 -38 62 -32 58
6 -4 27 -32 47 -62z m2068 -60 c3 -13 2 -23 -3 -23 -5 0 -9 6 -9 13 0 6 -3 35
-6 62 -6 48 -6 48 3 10 6 -22 12 -50 15 -62z m-193 27 c3 -16 2 -34 -2 -40 -4
-6 -7 7 -8 30 -2 47 4 53 10 10z m4222 8 c-4 -7 -26 -39 -48 -72 -23 -32 -49
-70 -58 -85 -10 -14 -18 -22 -18 -18 0 13 114 187 123 187 5 0 5 -6 1 -12z
m-1827 -60 c-3 -8 -6 -5 -6 6 -1 11 2 17 5 13 3 -3 4 -12 1 -19z m-2382 -73
c3 -33 7 -73 10 -90 2 -16 7 -66 10 -110 4 -44 8 -90 10 -102 2 -13 -1 -23 -6
-23 -5 0 -9 17 -10 38 0 20 -2 46 -4 57 -2 11 -6 52 -9 90 -3 39 -8 102 -12
140 -3 39 -4 68 -1 65 3 -3 8 -32 12 -65z m182 43 c-3 -8 -6 -5 -6 6 -1 11 2
17 5 13 3 -3 4 -12 1 -19z m1999 -188 c24 -187 38 -377 25 -364 -6 6 -7 15
-16 107 -4 39 -8 79 -10 87 -2 8 -6 49 -10 90 -4 41 -8 93 -11 115 -24 247
-13 229 22 -35z m-4275 90 c40 -47 80 -92 88 -100 8 -8 46 -64 86 -125 39 -60
94 -136 121 -167 27 -31 60 -76 73 -99 l23 -42 -58 45 c-78 60 -98 70 -111 57
-16 -16 -111 135 -215 340 -48 95 -93 181 -100 190 -24 33 18 -12 93 -99z
m4489 75 c0 -5 -5 -3 -10 5 -5 8 -10 20 -10 25 0 6 5 3 10 -5 5 -8 10 -19 10
-25z m-2203 -47 l1 -53 -7 45 c-6 40 -5 60 3 60 1 0 3 -24 3 -52z m-1772 -57
c41 -36 107 -117 135 -166 21 -37 18 -35 -42 25 -59 60 -144 157 -178 205 -15
19 17 -4 85 -64z m5725 75 c0 -2 -8 -10 -17 -17 -16 -13 -17 -12 -4 4 13 16
21 21 21 13z m-6189 -33 c13 -16 12 -17 -3 -4 -10 7 -18 15 -18 17 0 8 8 3 21
-13z m6313 -50 c-43 -69 -171 -240 -186 -249 -14 -9 -8 1 71 111 82 115 142
195 148 195 2 0 -13 -26 -33 -57z m-185 2 c-18 -25 -34 -43 -37 -41 -4 5 58
86 65 86 2 0 -10 -20 -28 -45z m-1652 7 c1 -9 5 -35 8 -57 3 -22 7 -47 10 -55
2 -8 7 -35 10 -60 5 -40 16 -106 30 -187 3 -16 7 -48 11 -73 3 -25 9 -70 14
-100 5 -30 12 -73 15 -95 4 -22 10 -67 16 -100 12 -78 12 -75 -11 -75 -15 0
-20 7 -21 28 0 15 -2 34 -4 42 -4 20 -13 126 -21 233 -3 48 -7 96 -9 105 -2 9
-4 27 -4 40 -1 27 -41 32 -41 5 0 -37 -8 -4 -14 57 -4 36 -9 81 -11 100 -13
106 -15 169 -6 175 6 3 11 16 11 27 0 24 12 17 17 -10z m-369 -17 c-3 -3 -9 2
-12 12 -6 14 -5 15 5 6 7 -7 10 -15 7 -18z m-1855 -65 c12 -110 19 -235 15
-230 -3 3 -8 41 -12 85 -4 44 -9 109 -13 145 -3 36 -3 63 0 60 2 -3 7 -30 10
-60z m2284 -7 c-3 -10 -5 -2 -5 17 0 19 2 27 5 18 2 -10 2 -26 0 -35z m-4408
-27 c-2 -2 -13 8 -23 22 l-19 27 24 -22 c12 -12 21 -24 18 -27z m5842 -83 c-5
-10 -31 -38 -58 -63 -46 -43 -32 -22 31 48 34 36 41 40 27 15z m-3890 -95 c1
-24 3 -52 4 -63 12 -106 26 -305 22 -320 -2 -11 -6 0 -7 25 -1 25 -3 53 -5 63
-2 10 -6 55 -9 100 -4 45 -10 117 -14 160 -4 42 -4 77 0 77 4 0 9 -19 9 -42z
m3693 -9 c-16 -17 -42 -40 -59 -51 -16 -11 -5 2 25 30 62 58 78 68 34 21z
m-3492 -64 c2 -25 0 -45 -3 -45 -4 0 -9 20 -11 45 -2 25 0 45 3 45 4 0 9 -20
11 -45z m3827 13 c-53 -50 -71 -60 -30 -15 25 25 47 44 49 42 3 -3 -6 -15 -19
-27z m-3819 -78 c0 -5 -2 -10 -4 -10 -3 0 -8 5 -11 10 -3 6 -1 10 4 10 6 0 11
-4 11 -10z m1967 -42 c-3 -7 -5 -2 -5 12 0 14 2 19 5 13 2 -7 2 -19 0 -25z
m-1959 -93 c0 -22 -3 -18 -9 15 -4 25 -7 59 -7 75 0 22 3 18 9 -15 4 -25 7
-58 7 -75z m-1953 -2 c6 -5 30 -24 55 -42 74 -56 121 -104 141 -143 11 -21 16
-38 12 -38 -5 1 -39 18 -78 38 -58 31 -84 54 -153 137 -133 159 -138 167 -56
107 38 -28 74 -55 79 -59z m266 90 c13 -16 12 -17 -3 -4 -10 7 -18 15 -18 17
0 8 8 3 21 -13z m4889 14 c0 -2 -12 -14 -27 -28 l-28 -24 24 28 c23 25 31 32
31 24z m-4641 -70 c10 -14 1 -10 -26 13 -23 19 -42 39 -42 43 -1 12 50 -30 68
-56z m-593 -69 c36 -46 46 -64 33 -61 -29 8 -57 41 -95 113 -38 71 -29 64 62
-52z m5414 71 c-54 -47 -80 -55 -31 -10 24 23 49 41 55 41 6 -1 -5 -14 -24
-31z m-1224 -119 c2 -19 7 -51 9 -70 3 -19 7 -54 10 -77 4 -27 2 -43 -5 -43
-5 0 -10 3 -11 8 0 4 -2 14 -4 22 -1 8 -5 31 -9 50 -3 19 -8 49 -11 65 -19
107 -25 140 -25 149 0 22 41 -71 46 -104z m-3291 -48 c84 -41 185 -101 185
-109 0 -2 -12 3 -27 11 -35 17 -98 35 -141 38 -25 2 -51 20 -115 81 -72 68
-76 74 -37 51 25 -15 86 -47 135 -72z m1144 56 c1 -23 0 -40 -3 -38 -8 9 -16
80 -8 80 4 0 9 -19 11 -42z m2691 -37 c-30 -22 -100 -58 -155 -81 -55 -22
-106 -43 -112 -46 -8 -4 -13 1 -13 10 0 9 5 16 11 16 6 0 25 7 42 14 18 8 79
36 137 61 58 25 109 50 115 56 5 5 14 9 19 9 6 0 -14 -18 -44 -39z m809 -28
c-14 -16 -60 -68 -104 -118 -147 -168 -307 -318 -470 -440 -80 -60 -183 -117
-169 -93 7 11 108 126 215 243 20 22 64 72 99 110 47 53 93 89 184 145 67 42
152 99 190 128 78 59 91 65 55 25z m-5356 -100 c36 -34 95 -85 131 -113 59
-46 98 -90 80 -90 -7 0 -131 85 -237 164 -58 42 -96 84 -130 143 -16 27 97
-48 156 -104z m1667 90 c0 -10 2 -43 5 -73 5 -64 -1 -50 -13 33 -5 31 -5 57 0
57 4 0 8 -8 8 -17z m3464 -12 c-27 -24 -154 -121 -154 -118 0 18 150 141 159
131 3 -2 0 -8 -5 -13z m-917 -33 c-3 -8 -6 -5 -6 6 -1 11 2 17 5 13 3 -3 4
-12 1 -19z m-2369 -113 c18 -98 24 -165 13 -165 -14 0 -41 130 -41 197 1 69
12 55 28 -32z m-1708 14 c19 -34 8 -30 -45 18 l-50 45 42 -21 c23 -12 47 -30
53 -42z m65 31 c16 -17 16 -20 3 -15 -9 4 -19 13 -22 21 -7 19 -2 18 19 -6z
m4022 -2 c-3 -8 -6 -5 -6 6 -1 11 2 17 5 13 3 -3 4 -12 1 -19z m250 2 c-14
-11 -28 -20 -32 -20 -10 0 38 39 49 40 5 0 -3 -9 -17 -20z m-600 -22 c-3 -7
-5 -2 -5 12 0 14 2 19 5 13 2 -7 2 -19 0 -25z m283 -7 c0 -38 -26 -49 -33 -13
-5 24 6 41 26 42 4 0 7 -13 7 -29z m1069 -63 c-30 -35 -72 -81 -94 -103 -39
-39 -118 -109 -102 -90 26 30 243 255 245 255 2 0 -20 -28 -49 -62z m-4030 13
c101 -41 411 -141 435 -141 16 0 41 -28 33 -36 -6 -7 -77 12 -233 63 -96 31
-363 150 -342 152 4 1 52 -17 107 -38z m2834 -3 c3 -21 1 -35 -4 -32 -5 3 -9
21 -9 41 0 45 6 40 13 -9z m297 38 c0 -2 -8 -10 -17 -17 -16 -13 -17 -12 -4 4
13 16 21 21 21 13z m170 -1 c0 -8 -121 -85 -134 -85 -9 0 43 37 109 77 24 14
25 15 25 8z m-3066 -183 c67 -22 150 -46 184 -53 54 -11 63 -16 72 -42 5 -17
10 -39 10 -49 0 -16 -5 -18 -37 -12 -68 11 -245 74 -338 119 -71 35 -223 144
-295 212 -3 2 60 -27 139 -66 78 -38 198 -88 265 -109z m3441 148 c-16 -16
-34 -30 -39 -30 -10 1 53 60 63 60 3 0 -8 -13 -24 -30z m-4619 7 c33 -19 224
-180 224 -189 0 -4 -26 7 -57 24 -117 63 -158 94 -180 136 -23 44 -21 49 13
29z m-115 -102 c114 -75 146 -103 196 -165 33 -41 102 -117 154 -168 88 -88
91 -92 42 -60 -29 18 -98 62 -154 98 -119 75 -267 215 -348 328 -29 41 -47 70
-39 65 7 -4 74 -49 149 -98z m1626 63 c-3 -8 -6 -5 -6 6 -1 11 2 17 5 13 3 -3
4 -12 1 -19z m2133 -22 c4 -20 4 -39 -1 -42 -5 -3 -9 8 -9 25 0 16 -3 38 -7
48 -3 10 -3 15 1 11 4 -3 11 -23 16 -42z m-123 -47 c10 -49 10 -51 -16 -61
-14 -6 -66 -16 -116 -24 -88 -13 -152 -18 -385 -29 -63 -3 -133 -10 -155 -15
-38 -9 -233 -14 -224 -6 4 4 38 10 120 21 26 4 134 24 240 46 107 22 205 42
219 45 14 2 81 20 150 38 69 18 132 34 141 35 12 1 19 -13 26 -50z m-2983 12
c-2 -3 -12 3 -22 13 -16 17 -16 18 5 5 12 -7 20 -15 17 -18z m3025 -43 c1 -5
-3 -8 -9 -8 -5 0 -10 12 -9 28 0 24 1 25 9 7 5 -11 9 -23 9 -27z m-2784 -47
c10 -17 -69 19 -90 41 -17 17 -13 16 32 -6 28 -14 54 -30 58 -35z m-513 -70
c70 -35 133 -70 140 -79 11 -13 10 -14 -7 -5 -11 5 -86 42 -166 82 -80 40
-151 81 -157 92 -11 18 -9 17 25 -4 21 -13 95 -52 165 -86z m4272 52 c-27 -32
-56 -65 -64 -73 -18 -18 -140 -155 -169 -188 -19 -23 -150 -72 -192 -72 -37 0
-16 34 46 74 61 39 147 107 175 137 13 14 239 177 249 178 2 1 -18 -25 -45
-56z m-4163 -30 c13 -17 13 -17 -6 -3 -11 8 -22 16 -24 17 -2 2 0 3 6 3 6 0
17 -8 24 -17z m1344 7 c3 -5 -1 -10 -9 -10 -8 0 -18 5 -21 10 -3 6 1 10 9 10
8 0 18 -4 21 -10z m3045 7 c0 -2 -10 -12 -22 -23 l-23 -19 19 23 c18 21 26 27
26 19z m-4330 -53 c0 -2 -9 0 -20 6 -11 6 -20 13 -20 16 0 2 9 0 20 -6 11 -6
20 -13 20 -16z m460 -10 c0 -2 -13 2 -30 11 -16 9 -30 18 -30 21 0 2 14 -2 30
-11 17 -9 30 -18 30 -21z m187 -31 c-7 -7 -78 22 -104 43 -24 19 -18 18 39 -9
37 -17 66 -32 65 -34z m517 27 c21 -54 21 -69 -3 -63 -15 4 -20 16 -23 54 -1
27 0 49 3 49 4 0 14 -18 23 -40z m-1289 -49 c72 -34 162 -76 201 -91 39 -16
109 -53 155 -83 139 -91 256 -154 381 -207 111 -47 331 -119 367 -121 13 0 13
-2 -2 -8 -27 -10 -172 5 -276 29 -51 12 -98 23 -104 24 -28 6 -111 30 -227 66
-120 38 -257 106 -341 170 -121 92 -190 155 -279 253 -48 53 -53 55 125 -32z
m2910 59 c-62 -23 -75 -24 -75 -6 0 15 20 20 90 22 34 2 33 1 -15 -16z m-1498
-40 c-2 -28 -7 -50 -10 -50 -9 0 -9 0 -17 55 -6 39 -5 45 11 45 16 0 18 -7 16
-50z m1723 40 c-8 -5 -22 -9 -30 -9 -10 0 -8 3 5 9 27 12 43 12 25 0z m-1105
-15 c84 -5 228 -12 285 -14 14 -1 20 -4 14 -9 -23 -15 -34 -50 -24 -76 6 -17
6 -26 0 -26 -6 0 -13 -1 -17 -2 -92 -23 -279 -30 -379 -14 -16 2 -63 8 -104
11 -77 8 -130 14 -165 19 -11 2 -34 4 -52 5 -34 1 -37 6 -48 80 l-7 44 203 -6
c112 -3 245 -8 294 -12z m1925 11 c0 -2 -7 -7 -16 -10 -8 -3 -12 -2 -9 4 6 10
25 14 25 6z m-1184 -39 c5 -4 -168 -48 -206 -52 -8 -1 -33 -5 -55 -9 -42 -8
-50 -10 -125 -24 -44 -8 -45 -8 -44 15 1 31 11 40 70 62 42 17 71 19 202 16
84 -1 155 -5 158 -8z m-1314 -27 c3 -16 1 -30 -4 -30 -4 0 -8 14 -8 30 0 17 2
30 4 30 2 0 6 -13 8 -30z m-642 -7 c9 -9 -65 9 -74 18 -5 4 8 3 30 -2 21 -6
41 -13 44 -16z m3130 -7 c0 -3 -34 -28 -77 -56 -52 -35 -79 -48 -86 -41 -14
14 -13 14 79 60 89 44 84 43 84 37z m-1100 -16 c0 -5 -17 -12 -37 -15 -21 -4
-53 -11 -72 -16 -52 -13 -24 7 34 24 60 19 75 20 75 7z m-160 -40 c-8 -5 -22
-9 -30 -9 -10 0 -8 3 5 9 27 12 43 12 25 0z m-1904 -16 c18 -14 18 -14 -6 -3
-31 14 -36 19 -24 19 6 0 19 -7 30 -16z m1842 -5 c-22 -12 -108 -39 -108 -33
0 8 84 43 105 43 18 0 19 0 3 -10z m972 -8 c0 -17 -18 -21 -24 -6 -3 9 0 15 9
15 8 0 15 -4 15 -9z m150 -43 c0 -5 -4 -8 -10 -8 -5 0 -10 10 -10 23 0 18 2
19 10 7 5 -8 10 -18 10 -22z m-2075 6 c33 -3 71 -8 85 -10 67 -10 221 -20 329
-23 36 -1 41 -3 32 -15 -7 -8 -25 -13 -44 -11 -18 2 -75 6 -128 9 -53 4 -107
9 -120 11 -13 2 -46 6 -74 10 -72 9 -148 26 -165 37 -12 7 -11 8 5 4 11 -2 47
-8 80 -12z m1993 -45 c-3 -8 -7 -3 -11 10 -4 17 -3 21 5 13 5 -5 8 -16 6 -23z
m-2523 11 c3 -6 -1 -7 -9 -4 -18 7 -21 14 -7 14 6 0 13 -4 16 -10z m1261 -12
c-27 -15 -208 -17 -241 -3 -27 12 -14 13 113 13 84 -1 137 -5 128 -10z m1004
-2 c0 -8 -4 -18 -10 -21 -5 -3 -10 3 -10 14 0 12 5 21 10 21 6 0 10 -6 10 -14z
m199 -15 c-15 -5 -22 6 -14 19 6 9 10 9 16 -1 5 -8 4 -15 -2 -18z m-448 4
c-18 -8 -45 -15 -60 -14 -22 0 -20 3 14 14 56 18 89 18 46 0z m594 5 c3 -5 1
-10 -4 -10 -6 0 -11 5 -11 10 0 6 2 10 4 10 3 0 8 -4 11 -10z m-509 -15 c-11
-8 -25 -15 -30 -15 -6 1 0 7 14 15 32 19 40 18 16 0z m84 -15 c0 -5 -5 -10
-11 -10 -5 0 -7 5 -4 10 3 6 8 10 11 10 2 0 4 -4 4 -10z m290 6 c0 -2 -7 -6
-15 -10 -8 -3 -15 -1 -15 4 0 6 7 10 15 10 8 0 15 -2 15 -4z m-2017 -45 c31
-12 57 -25 57 -27 0 -5 -133 4 -169 11 -9 2 -22 4 -28 4 -10 1 -12 36 -4 47 4
5 99 -18 144 -35z m2276 25 c-15 -13 -69 -35 -69 -27 0 5 12 14 28 19 28 11
48 15 41 8z m-934 -32 c-39 -15 -180 -35 -169 -25 14 14 115 39 159 39 l50 1
-40 -15z m-310 -14 c-3 -5 -18 -9 -33 -9 l-27 1 30 8 c17 4 31 8 33 9 2 0 0
-3 -3 -9z m525 -32 c-144 -67 -262 -109 -316 -111 -30 -2 -51 0 -47 3 5 4 60
23 123 44 63 20 144 50 180 65 36 16 79 29 95 29 25 0 20 -4 -35 -30z m481 25
c0 -5 2 -18 3 -30 3 -30 -30 -38 -38 -9 -10 36 -7 46 14 46 11 0 20 -3 21 -7z
m-633 -28 c-102 -36 -108 -37 -108 -26 0 14 107 47 160 49 8 0 -15 -10 -52
-23z m422 21 c0 -3 -4 -8 -10 -11 -5 -3 -10 -1 -10 4 0 6 5 11 10 11 6 0 10
-2 10 -4z m-2425 -46 c50 -17 105 -35 123 -41 44 -14 34 -24 -10 -11 -47 14
-201 71 -206 77 -9 9 1 6 93 -25z m2350 20 c3 -5 -3 -10 -15 -10 -12 0 -18 5
-15 10 3 6 10 10 15 10 5 0 12 -4 15 -10z m85 -22 c0 -7 3 -23 6 -35 5 -17 2
-23 -9 -23 -14 0 -30 54 -19 65 10 9 22 5 22 -7z m-163 -14 c-3 -3 -12 -4 -19
-1 -8 3 -5 6 6 6 11 1 17 -2 13 -5z m91 -35 c-1 -13 -10 -24 -18 -24 -19 0
-26 45 -8 56 18 11 30 -4 26 -32z m-521 25 c-9 -10 -177 -54 -222 -60 -32 -3
-27 0 25 16 103 32 209 56 197 44z m818 -54 c-8 -12 -35 -6 -45 11 -7 10 -3
17 13 26 19 10 23 9 30 -9 4 -11 5 -24 2 -28z m-379 21 c0 -17 -7 -19 -52 -18
-29 1 -51 3 -50 5 3 2 84 29 96 31 3 1 6 -8 6 -18z m-1372 -10 c10 -15 -27
-17 -109 -5 l-80 11 92 2 c50 0 94 -3 97 -8z m1480 -115 c10 -65 48 -275 71
-398 31 -160 31 -176 -1 -83 -28 84 -76 276 -98 400 -9 50 -18 98 -20 107 -4
18 11 28 30 21 7 -2 15 -24 18 -47z m96 -56 c12 -58 29 -116 39 -130 16 -23
47 -120 56 -174 2 -12 6 -63 10 -115 3 -51 8 -98 12 -104 3 -5 1 -7 -4 -4 -6
4 -14 24 -18 44 -3 21 -24 112 -47 203 -22 91 -41 172 -43 180 -2 8 -13 53
-25 99 -11 46 -19 90 -15 99 8 22 11 16 35 -98z m212 15 c9 -44 19 -96 22
-115 10 -63 17 -94 27 -128 6 -18 9 -36 6 -39 -3 -2 -22 49 -43 114 -20 65
-47 142 -60 172 -31 70 -31 80 4 78 25 -2 28 -7 44 -82z m-1337 45 c-3 -5 -25
-9 -48 -8 l-42 1 45 7 c25 4 46 8 48 8 2 1 0 -2 -3 -8z m-1558 -16 c-3 -3 -12
-4 -19 -1 -8 3 -5 6 6 6 11 1 17 -2 13 -5z m75 -8 c26 -4 53 -8 60 -11 7 -2
29 -6 48 -9 166 -23 206 -29 213 -35 4 -4 -31 -1 -78 5 -224 33 -289 45 -300
57 -7 6 -7 8 0 5 6 -3 31 -9 57 -12z m498 -73 c0 -2 -20 -3 -44 -2 -25 2 -43
5 -41 9 4 6 85 0 85 -7z"/>
<path d="M4790 4860 c-19 -11 -31 -19 -27 -20 11 0 67 29 67 35 0 7 -1 7 -40
-15z"/>
<path d="M3730 4369 c0 -5 5 -7 10 -4 6 3 10 8 10 11 0 2 -4 4 -10 4 -5 0 -10
-5 -10 -11z"/>
<path d="M3622 4328 c-51 -22 -91 -42 -89 -44 5 -5 169 65 182 77 14 13 9 11
-93 -33z"/>
</g>
</svg>
