<svg id="Layer_1" data-name="Layer 1" xmlns="http://www.w3.org/2000/svg" viewBox="0 0 200 97.09"><title>fishbowl-comment</title><path d="M47.62,60.7c-3,2.41-6.26,5.44-10.47,4.73-3.94-.67-5.08-5.58-5.35-8.93A21.61,21.61,0,0,1,34,45c1.21-2.4,5.24-6.16,6.79-1.94.32.88,1.08,4,2.63,2.2.92-1.07-.46-3.94-1.2-4.9-2.64-3.47-7.13-1.25-9.27,1.49C30.49,45,29.48,49.21,29.22,53.1s.17,8,2.27,11.24c2.39,3.73,7,4.59,10.94,2.88a24.36,24.36,0,0,0,5.77-3.86c.64-.52,1.6-1.07,1.26-2A1.23,1.23,0,0,0,47.62,60.7Z"/><path d="M62.43,47.24a6.63,6.63,0,0,0-1.2-2.68c1.72-1.29-1-2.86-2.2-2.85-1.84,0-3.09,1.43-3.94,2.91a24.19,24.19,0,0,0-3,13.54c.13,1.9.44,4.29,2.63,4.88s4-1.16,5.12-2.72A17.13,17.13,0,0,0,62.43,47.24Zm-2,4.1a16.66,16.66,0,0,1-1.85,6.54c-.49.9-2.76,4.19-3.66,2.07a9.23,9.23,0,0,1-.29-3.11,20.46,20.46,0,0,1,.24-3.58,22.62,22.62,0,0,1,2.25-7.14c.91.53,1.21-.41,2-.45C60.59,46.37,60.46,50.06,60.41,51.34Z"/><path d="M85.51,47.93c-.05-1.81.23-4.92-1-6.4s-2.84-.35-3.42,1.12c-1.63,4.11-2.61,8.42-4,12.62-.39-2.52-.74-5.05-1.16-7.56-.28-1.7-.42-5.84-2.42-6.54S70.74,44.64,70.33,46c-.78,2.54-1.35,5.14-2,7.73-.21-2.32-.39-4.65-.51-7-.07-1.15-.11-2.3-.14-3.46,0-.87,0-2.11-1.29-2-1.83.13-1,3.71-1,4.85.11,2.21.26,4.42.43,6.62a32.17,32.17,0,0,0,.61,5.81,1.39,1.39,0,0,0,1.87,1.13c.74-.27,1.06-1.09,1.31-1.77,1.53-4.17,2-8.72,3.44-12.95.67,3,1.05,6.17,1.52,9.25.17,1.14.37,6.89,2.53,5.9,1-.45,1.4-2.21,1.71-3.15.47-1.41.86-2.85,1.28-4.28.9-3,1.82-6.06,2.9-9a51,51,0,0,1,.34,8.65c0,3.15-.57,6.48-.22,9.61.13,1.13,1.51,1.89,2.09.53a7.65,7.65,0,0,0,.08-2.35c0-.83,0-1.66.08-2.49C85.52,54.36,85.6,51.15,85.51,47.93Zm-12.41-3h0v0Z"/><path d="M108.13,42.92c-.2-1.41-.27-3.49-1.77-4.16-1.72-.78-2.59,1.1-3.2,2.36A89.5,89.5,0,0,0,99.1,51.61a51.92,51.92,0,0,0-.51-6.35c-.26-1.74-.66-4.5-2.13-5.69-3.09-2.5-5,7.17-5.41,8.91,0-.85-.08-1.7-.11-2.54a4.49,4.49,0,0,0-.24-2.07c-.69-1.1-2-.5-2.24.57a20.88,20.88,0,0,0,.17,4.73A23.45,23.45,0,0,0,89,53.84c.26.91,1.15,2.16,2.24,1.6s1.2-2.93,1.47-4a79.05,79.05,0,0,1,2.7-9.05c1.11,2.86,1.17,6.17,1.28,9.21.06,1.65,0,3.3.11,5,.07,1.27,1.13,2.31,2.34,1.29,1-.87,1.13-2.8,1.53-4l1.47-4.36a64.48,64.48,0,0,1,3.43-8.24c.81,2.87.64,6.19.52,9.13-.07,1.67-.19,3.33-.29,5,0,.91-.1,1.81-.14,2.72,0,.7-.31,1.82.31,2.36,1.49,1.31,1.8-1.15,1.85-2,.1-1.7.21-3.39.31-5.08A53.08,53.08,0,0,0,108.13,42.92Zm-9,13.79a.17.17,0,0,1,0-.07Z"/><path d="M128,36.24c-.84-.42-2.36.38-3.2.65-1.18.36-2.36.72-3.52,1.17-2.12.82-4.18,1.79-6.23,2.77a1,1,0,0,0-1.29-.68c-.7.24-.7,1-.78,1.65-.69.32-2,.62-2,1.53-.07,1.08,1,1.19,1.74.85-.11,1.4-.18,2.79-.17,4.2-.76.23-1.82.44-1.63,1.5.16.87,1,1,1.69.75.17,3.4.46,8.29,4.61,9.19,3.57.77,6.18-3.59,8-5.94a6.44,6.44,0,0,0,1.44-2.16,1.07,1.07,0,0,0-1.2-1.37c-.75.13-1.2,1.26-1.61,1.8-.54.73-1.12,1.43-1.68,2.14-.93,1.19-2.15,3.14-3.75,3.47-2,.43-3-1.82-3.32-3.37l.06.26a30.1,30.1,0,0,1-.54-4.65c2.36-.72,4.71-1.42,7.1-2l3.48-.87c.89-.22,2.44-.28,2.26-1.58-.28-2-4.6-.1-5.7.18-2.42.61-4.81,1.3-7.19,2a36.73,36.73,0,0,1,.25-4.57c2.57-1.2,5.14-2.43,7.81-3.38,1.18-.42,2.39-.78,3.6-1.13a5.5,5.5,0,0,0,2-.67A1.09,1.09,0,0,0,128,36.24Z"/><path d="M145.34,38.83c-.08-1-.54-3.12-2.07-2.18-.89.55-1.21,3-.36,3.7.11,3.67-.09,7.34-.18,11-3.15-3.23-5.87-6.92-8.88-10.28,0-.93.43-2.77-1-2.78-1.27,0-1.11,1.45-1.15,2.3a1,1,0,0,0,0,1c-.11,2.56-.21,5.12-.32,7.69-.05,1.34-.12,2.68-.14,4,0,.89-.23,2.54.43,3.26.81.89,1.83.14,1.94-.81.13-1.15-.11-2.5-.07-3.68.08-2.69.18-5.37.28-8,1.53,1.72,3,3.5,4.46,5.28,1.25,1.51,2.74,4,4.62,4.72.19,1.16,1.69,1.74,2.27.46a7.4,7.4,0,0,0,.1-2.45c0-.93.07-1.86.11-2.79A92.17,92.17,0,0,0,145.34,38.83Z"/><path d="M171.76,34.78a1.18,1.18,0,0,0-.91-1.36c-.6-.12-1,.3-1.43.63a8.16,8.16,0,0,1-4.1,1.61c-3.35.51-6.73.65-10.09,1a46.27,46.27,0,0,0-4.68.68c-1,.22-3.13.3-3.2,1.66-.09,1.81,2.09,1,3.06.8a37.89,37.89,0,0,1,5-.76,90.4,90.4,0,0,1,1,10.26c.07,1.37-.3,8.41,1.81,8.4,1.64,0,.73-2.49.63-3.35-.17-1.57-.25-3.16-.35-4.74a99.76,99.76,0,0,0-1.08-10.76c2.76-.23,5.53-.39,8.26-.85a10.54,10.54,0,0,0,3.45-1C169.88,36.64,171.57,35.74,171.76,34.78Z"/><path d="M170.72,64.42c4.94-2.69,9.58-6.22,12.48-11.11s5.05-10.16,3.51-15.75a23,23,0,0,0-9.59-12.62c-4.46-3.05-9.72-4.27-15-4.59-5.82-.35-11.74,0-17.55.11-6,.12-12,.67-17.92,1.2-5.68.5-11.47.63-17.16.8-6.15.19-12.29.38-18.44.4-12.37,0-24.82-.26-37.17.42A79,79,0,0,0,37.71,25.4a35.17,35.17,0,0,0-13.19,6.8C16,39.15,10.06,50.27,10.84,61.43a24.86,24.86,0,0,0,2.05,8.31A17.33,17.33,0,0,0,18,76.09a27.49,27.49,0,0,0,15.44,6.07c5.83.55,11.82,0,17.66-.13,6.19-.19,12.41-.53,18.59-1,5.9-.47,11.83-.83,17.7-1.67,3-.43,6.09-.9,9.15-1.26a85.69,85.69,0,0,0,8.88-1.2c1.33-.3,2.66-.62,4-.88,1.17-.22,2.9-.3,3.91-1,2.19,1.08,2.88,2.64,3.07,5.06a10.92,10.92,0,0,1-.24,3.56c-.24,1-1,2.38-.69,3.46,1.16,4,9.78-4.52,10.88-5.81a55.36,55.36,0,0,0,4-6.21,4.75,4.75,0,0,1,2.33-2.16,10.09,10.09,0,0,1,3.16-.19c2.93-.13,5.87-.15,8.8-.31a50.59,50.59,0,0,0,8.64-1.35,78,78,0,0,0,9-2.55A60.58,60.58,0,0,0,170.72,64.42Zm-6.2,1.12a63.3,63.3,0,0,1-13.36,4.08l.18,0a49.74,49.74,0,0,1-8.51,1l-4.1.13a28.54,28.54,0,0,1-4.13.12c-.64-.48-2.22.14-2.85.4a6.56,6.56,0,0,0-3,2.8c.05-.07.09-.14.14-.2-1.24,1.83-2.17,3.87-3.54,5.62a31.68,31.68,0,0,1-4.3,4l.12-.11c-1.07.94-2.27,2.28-3.68,2.68.76-3.11,1.46-6.05.36-9.23a5.74,5.74,0,0,0-2.6-3.22c-.78-.44-2.63-1.73-3.25-.43a129.51,129.51,0,0,1-17,2.92c-5.89.76-11.72,1.71-17.65,2.15-11.71.87-23.38,1.77-35.13,2-5.39.1-10.43,0-15.64-1.57-5-1.44-10-5.41-12-10.23-4.1-9.93-.54-21.4,6-29.4a35.25,35.25,0,0,1,12.71-10c4.69-2.11,9.9-2.93,15-3.4C60,24.59,71.78,25,83.57,24.87c6-.08,12.05-.07,18.07-.27s12.17-.53,18.25-.71c5.62-.18,11.19-.72,16.8-1.13,6.14-.45,12.28-.4,18.43-.56,5.88-.15,11.76-.05,17.25,2.28a22,22,0,0,1,11.38,10.59,15.2,15.2,0,0,1,1.63,7.42A19.63,19.63,0,0,1,182.85,50a28,28,0,0,1-4.44,6.54,35.55,35.55,0,0,1-6.1,4.75A81.13,81.13,0,0,1,164.52,65.54Z"/><path d="M13.6,28.5c.93.73,2.08,1.87,3.37,1.18s.42-2.29-.93-1.84c-1.07-.51-2.15-2.43-3.36-2.43a1,1,0,0,0-1,1.21C11.83,27.36,13.07,28.08,13.6,28.5Z"/><path d="M23.42,21.39c.5.91,1.78,3.35,3.15,2.66,1.74-.87-.88-3.17-1.35-4.07s-.57-3.06-2-2.69C21.4,17.75,22.9,20.44,23.42,21.39Z"/><path d="M35,16.74c.41,1,1.14,3.94,2.58,3.65,1.84-.37-.29-3.39-.65-4.25s-1.22-4.45-2.69-4S34.61,15.85,35,16.74Z"/><path d="M44,11.77c.4,1.27,1.25,4.63,2.83,4.94s1.27-1.23.8-2a12.07,12.07,0,0,1-1.36-2.68c-.35-1-.66-2-1-3.05C45.05,8.29,45,7.08,44,7,41.73,6.63,43.72,10.93,44,11.77Z"/><path d="M57.53,15.66c.13.75.13,2.2.83,2.68a1.08,1.08,0,0,0,1.68-.9,13.31,13.31,0,0,0-.52-2.6c-.23-1.26-.43-2.53-.61-3.8-.12-.86,0-2.49-.82-3a1,1,0,0,0-1.54.62c-.26.85.28,2.55.41,3.41C57.13,13.29,57.33,14.48,57.53,15.66Z"/><path d="M67.84,16.54c.08,1-.2,3.44.75,4,1.5.92,1.64-1.16,1.57-2-.26-3.22-.55-6.44-.82-9.65-.08-1,.22-3.27-.84-3.78-1.3-.64-1.5.95-1.43,1.81Q67.46,11.72,67.84,16.54Z"/><path d="M79.65,14.12c.12.85,0,2.68.95,3.14,1.22.6,1.47-.72,1.37-1.51-.27-2.33-.62-4.65-.84-7-.08-.83.1-2.66-.85-3-.76-.3-1.3.33-1.39,1a18.65,18.65,0,0,0,.36,3.79C79.37,11.74,79.48,12.93,79.65,14.12Z"/><path d="M90,15.49c1.51.3,1.29-1.83,1.35-2.68s.69-3.29-.27-3.93c-1.5-1-1.64,1.42-1.69,2.24C89.33,12.16,88.54,15.21,90,15.49Z"/><path d="M99.53,17.27a1,1,0,0,0,2,.32c.43-1,0-2.86,0-3.92,0-1.46,0-2.92,0-4.38a36.07,36.07,0,0,0,0-4.41c-.12-.94-1.16-1.74-1.83-.67s-.17,3.11-.18,4.19C99.45,11.35,99.37,14.32,99.53,17.27Z"/><path d="M109.9,11.86c0,.92-.25,3.24.79,3.75,1.46.73,1.24-1.27,1.17-2-.3-3.06-.18-6.2-.23-9.27,0-1,.41-3.38-.35-4.08a.91.91,0,0,0-1.19,0c-.55.44-.37,1.25-.36,1.87C109.78,5.34,109.83,8.6,109.9,11.86Z"/><path d="M120.61,15.35c1.21-.43.57-1.91.45-2.81s-.29-2.13-1.5-1.84C117.87,11.11,118.69,16,120.61,15.35Z"/><path d="M127.73,13.32a1.07,1.07,0,0,0,2.12,0,11.8,11.8,0,0,0,0-2.3,12.61,12.61,0,0,0,0-2.38,1.07,1.07,0,0,0-2.07-.25,7.2,7.2,0,0,0,0,2.32C127.68,11.59,127.66,12.46,127.73,13.32Z"/><path d="M138,16.73c1.5.28,1.32-1.72,1.41-2.61.18-1.55.37-3.11.57-4.66s.43-3.13.69-4.68c.16-1,1.09-3.28-.23-3.76-1.48-.55-1.56,1.7-1.71,2.58-.27,1.55-.51,3.11-.72,4.67s-.41,3.19-.61,4.79C137.25,14,136.49,16.44,138,16.73Z"/><path d="M148.17,15.4a1,1,0,0,0,1.41-.09c.4-.45.2-1.15.23-1.7.08-1.23.33-2.47.51-3.69.21-1.44.47-2.87.74-4.3.16-.87,1-2.73.11-3.39-1.92-1.48-2.4,4.68-2.55,5.58-.23,1.35-.42,2.71-.6,4.07C147.89,12.79,147.36,14.68,148.17,15.4Z"/><path d="M158.4,14.41c1.14-.09.91-1.75,1.06-2.53s.69-2.37-.68-2.37S156.58,14.55,158.4,14.41Z"/><path d="M166.91,14.62c1.49.29,2.19-3.73,2.56-4.74s2.61-5,.82-5.4c-1.51-.36-2.31,3.65-2.7,4.71S165,14.25,166.91,14.62Z"/><path d="M175.85,19.11c1.53.76,2.76-3,3.28-3.95l1.64-3c.38-.68,1.17-1.62.43-2.35-1.49-1.48-3.25,3.18-3.75,4.08S174.2,18.29,175.85,19.11Z"/><path d="M183.71,22.42c1.27.63,2-1.52,2.51-2.3.74-1.23,1.5-2.46,2.25-3.68l2.32-3.79c.48-.76,2.11-2.56.71-3.26-1.25-.62-2,1.56-2.52,2.33l-2.29,3.72q-1.16,1.86-2.3,3.72C183.91,19.94,182.3,21.72,183.71,22.42Z"/><path d="M6.16,31.92c1,.77,2.09,1.51,3.16,2.23.87.59,2.32,2,3.4,2.06a1,1,0,0,0,.87-1.76,6.84,6.84,0,0,0-1.45-.88c-.59-.37-1.17-.76-1.74-1.14-1-.66-2-1.36-2.93-2.06a17.22,17.22,0,0,0-3.09-2.28c-.81-.31-1.84.24-1.45,1.23S5.31,31.3,6.16,31.92Z"/><path d="M2.26,39.32a11.63,11.63,0,0,0,4.64,2c.68.13,2,.53,2.63.1a1.06,1.06,0,0,0-.2-1.84A10.22,10.22,0,0,0,7,39.16a9,9,0,0,1-2.52-.94c-.45-.25-1-.78-1.57-.74A1.06,1.06,0,0,0,2.26,39.32Z"/><path d="M2.87,47.89c1.61-.27,3.22-.6,4.81-1,.63-.15,1.45-.23,1.67-.95a1,1,0,0,0-.85-1.31,6.38,6.38,0,0,0-2.28.48c-.79.19-1.59.36-2.39.51s-1.55.09-1.91.73A1,1,0,0,0,2.87,47.89Z"/><path d="M6.88,57.32c.28-1.39-1.92-1.53-2.8-1.81s-3.58-1.89-4-.22c-.4,1.45,2.32,1.88,3.28,2.2S6.57,58.94,6.88,57.32Z"/><path d="M9.46,67.2a1.06,1.06,0,0,0,.61-1.82c-.53-.47-1.23-.17-1.82-.06a33,33,0,0,0-6,1.39c-.68.28-1.34,1-.69,1.7s1.65.15,2.34,0Q6.65,67.68,9.46,67.2Z"/><path d="M11.14,76c1.25-1.1-.31-2.31-1.51-1.38a22.06,22.06,0,0,0-4,3.7c-1,1.33.37,2.5,1.56,1.37S9.77,77.23,11.14,76Z"/><path d="M15.92,79.19c-1,0-1.92,1.7-2.52,2.4-.81,1-1.63,1.92-2.43,2.89-.64.76-1.93,1.86-2.23,2.79a1.06,1.06,0,0,0,1,1.46c.9-.06,1.53-1.39,2.06-2,.79-1,1.6-2,2.41-2.91a17.83,17.83,0,0,0,2.44-2.88C17,80.2,17,79.19,15.92,79.19Z"/><path d="M23.38,84.23c-1.47-.73-2.09,1.94-2.51,2.83s-1.82,2.86-.23,3.36c1.34.41,1.88-1.76,2.28-2.63S24.74,84.91,23.38,84.23Z"/><path d="M32.12,85.65c-1.51-.75-2.18,1.94-2.58,2.84s-1.93,3.19-.51,3.88,2-1.74,2.42-2.65S33.6,86.38,32.12,85.65Z"/><path d="M39.51,86.4c-1.09-.21-1.29,1.08-1.52,1.83s-1.26,2.69,0,3.2,1.51-1.2,1.76-2S41,86.68,39.51,86.4Z"/><path d="M46.29,86.19c-1.16-.23-1.33,1.1-1.52,1.89-.29,1.2-.58,2.4-.86,3.6s-1.87,4.9,0,5.26,1.91-3.68,2.17-4.78S48.16,86.55,46.29,86.19Z"/><path d="M54.05,86.29c-1.39-.27-2.15,2.57-1.24,3.28C54.43,90.82,55.87,86.64,54.05,86.29Z"/><path d="M58.3,85.93c-1.48-.28-1.56,2.26-1.75,3.18s-1.13,3.31.39,3.61,1.46-2,1.65-2.94S59.9,86.25,58.3,85.93Z"/><path d="M66.2,86c-1.22-.24-1.33,1.12-1.49,1.93-.23,1.25-.48,2.5-.74,3.75-.23,1.09-1.69,5,.11,5.4s1.81-3.77,2-4.88c.26-1.27.51-2.55.75-3.82C67,87.55,67.4,86.22,66.2,86Z"/><path d="M71,86.12c-1.35-.27-1.39,1.42-1.53,2.3s-.41,2,.74,2.25,1.32-1,1.45-1.83S72.32,86.37,71,86.12Z"/><path d="M80.24,85.23c-1.67-.32-1.76,3.69-2,4.75s-1.68,5,.06,5.34,1.76-3.89,2-4.95S81.94,85.56,80.24,85.23Z"/><path d="M86.57,84.23c-1.75-.33-1.65,5.15-1.77,6.22s-1.15,5.49.42,6c1.4.47,1.26-1.2,1.23-2a25.06,25.06,0,0,1,.26-3.46C86.84,89.89,88.15,84.55,86.57,84.23Z"/><path d="M96.61,82.79c-1.35-.27-1.32,1.41-1.41,2.27s-.64,2.64.48,3.09c1.47.61,1.5-1.31,1.58-2.2S98,83.05,96.61,82.79Z"/><path d="M101.66,81.7c-1.5,0-1.31,2.44.18,2.32A1.16,1.16,0,0,0,101.66,81.7Z"/><path d="M108.33,80c-1.51,0-1.35,2.47.18,2.36A1.18,1.18,0,0,0,108.33,80Z"/><path d="M131.13,80.44c-1.41-.27-2,2.36-.54,2.63S132.59,80.72,131.13,80.44Z"/><path d="M136.28,76.75c-1.55,0-1.39,2.54.19,2.42A1.21,1.21,0,0,0,136.28,76.75Z"/><path d="M143.61,79.16c-.39-.81-.79-2.8-1.75-3.11-1.44-.45-1.31,1.25-1,2s.71,2.46,1.65,2.7S144,80,143.61,79.16Z"/><path d="M150.75,76.36a1.16,1.16,0,0,0-1.72-.57c-.77.52-.47,1.68-.18,2.4s.83,1.24,1.64.84C151.55,78.5,150.93,77.22,150.75,76.36Z"/><path d="M158.41,79.33c-.46-1-.9-2-1.31-3-.33-.78-.66-2.48-1.73-2.48-2.25,0-.05,3.78.34,4.66s.91,2,1.41,2.94c.37.72.76,2.14,1.56,2.5,1.15.52,1.75-.69,1.39-1.6A31.11,31.11,0,0,0,158.41,79.33Z"/><path d="M164.44,75.48c-.35-.76-.6-2.31-1.69-2.3-1.44,0-1,1.53-.66,2.33s.73,2.26,1.66,2.44C165.56,78.29,164.85,76.26,164.44,75.48Z"/><path d="M171.18,73.45c-.67-.69-2-3-3.17-2.44-1.69.83.94,3,1.58,3.67s2.21,2.8,3.36,2.16C174.67,75.88,171.77,74,171.18,73.45Z"/><path d="M174.82,66.19c-1.66,0-1.49,2.73.2,2.6A1.3,1.3,0,0,0,174.82,66.19Z"/><path d="M185.7,67.14a26.73,26.73,0,0,1-5.19-3.38c-.58-.42-1.34-1.28-2.14-.89-1.06.53-.41,1.5.19,2a45.12,45.12,0,0,0,4.62,3.25c.6.38,1.64,1.19,2.4.93A1,1,0,0,0,185.7,67.14Z"/><path d="M194.09,61.74a18.1,18.1,0,0,1-6.78-2.61c-.64-.41-1.71-1.48-2.52-1.48-1.49,0-1,1.52-.26,2.09a19.16,19.16,0,0,0,6.56,3.42c.81.23,2.43,1,3.24.58A1.07,1.07,0,0,0,194.09,61.74Z"/><path d="M196.7,54.36c-2.22-.45-4.43-1-6.63-1.59-.77-.2-1.87-.75-2.5,0s-.11,1.46.61,1.77a46,46,0,0,0,6.49,1.64c.78.19,1.89.74,2.58.1A1.13,1.13,0,0,0,196.7,54.36Z"/><path d="M196.72,44.73a36.53,36.53,0,0,0-4.71.73c-.64.09-1.35.15-1.54.89a1.14,1.14,0,0,0,.81,1.34,6.82,6.82,0,0,0,2.53-.22c.75-.09,1.5-.22,2.24-.35s1.26-.13,1.59-.71A1.13,1.13,0,0,0,196.72,44.73Z"/><path d="M191.41,39.06a12.69,12.69,0,0,1,2.1-.72,12.85,12.85,0,0,0,2.66-.43c1.38-.69.45-2.07-.72-2.11a11.41,11.41,0,0,0-4.36,1c-.54.23-1.1.45-1.14,1.13A1.11,1.11,0,0,0,191.41,39.06Z"/><path d="M189.64,22.37c-.74.76-3,2.68-1.71,3.8s2.68-1.4,3.42-2.18,3.44-2.53,2-3.79S190.37,21.61,189.64,22.37Z"/><path d="M199.94,27.44c-.41-1.17-1.56-.54-2.29-.22-1,.45-2.1.9-3.17,1.3s-1.88.61-2.84.87c-.78.23-2.19.31-2.16,1.43,0,2,4.22.17,5.19-.16C195.82,30.27,200.51,29.07,199.94,27.44Z"/></svg>