<svg id="Layer_1" data-name="Layer 1" xmlns="http://www.w3.org/2000/svg" viewBox="0 0 200 97.09"><title>fishbowl-join</title><path d="M55.25,47.72c-.58,2.35-1.16,4.71-1.51,7.11-.27,1.85-.57,4.14.9,5.58,1.76,1.73,4.44.42,6.23-.59a18.13,18.13,0,0,0,5.29-4.65c2.82-3.61,5.26-8.24,5.53-12.88.12-2.06.11-4.57-1.45-6.13a6.44,6.44,0,0,0-5.55-1.46,1.39,1.39,0,0,0-.44-2.33,2.14,2.14,0,0,0-2.27.5C60,34.39,59.14,37,58.18,39.19c-3.26,3.48-6.86,6.66-10.35,9.91-.4-3.88-1-7.74-1.56-11.6q-.44-3-.91-5.94c-.15-1-.21-4.57-2.07-3.5-1.21.69,0,4,.13,5.08.31,2,.6,4,.89,6,.57,3.94,1.14,7.88,1.5,11.85-2.41,2.21-5.17,4.25-7.33,6.71-1.79,2-2.55,5.06-.95,7.43,1.48,2.17,4.84,4.33,7.57,3.42,2.89-1,3.12-5.18,3.27-7.64l0,.29a61.69,61.69,0,0,0-.26-9.32c2.74-2.53,5.49-5.06,8.19-7.63C55.91,45.4,55.55,46.54,55.25,47.72Zm-9,12.67c-.1,1.61,0,5-1.63,6s-4.07-1.06-5-2.19c-1.45-1.82-.48-4,.94-5.49,1.7-1.77,3.67-3.32,5.5-5a53.26,53.26,0,0,1,.15,6.92Zm9.56-3.68a53.38,53.38,0,0,1,4.11-16.05c1-1.11,2-2.26,3-3.44,2.09-.72,5.79-1.12,6.47,1.68a14.13,14.13,0,0,1-1.17,8.51,26.58,26.58,0,0,1-4.6,7.51c-1.63,1.82-4.4,4.22-7,4.24C55.67,58.74,55.73,57.48,55.76,56.71Z"/><path d="M80.46,52.68c.07-4.62,0-9.22,0-13.83,0-1,.6-5.86-1.67-4.75-.8.4-.64,1.39-.64,2.13,0,1.14,0,2.28,0,3.42,0,4.5.08,9,0,13.48,0,1.15-.73,4.95,1.24,4.8,1-.07,1-.91,1-1.66C80.39,55.07,80.44,53.87,80.46,52.68Z"/><path d="M93.2,40.79a35.23,35.23,0,0,0,5.37,6.84,36.17,36.17,0,0,0,3.19,2.6c.8.58,2.36,2.25,3.42,1.44,0,.75-.06,1.61.76,1.95a1.17,1.17,0,0,0,1.5-.54,5.35,5.35,0,0,0,.16-2.19c0-1,0-2,0-3q0-5.76-.28-11.5a75.29,75.29,0,0,0-.68-10.3c-.24-1.33-2-2.67-2.6-.76-.29.87-.52,3.25.4,3.79.52,7,.61,14,.72,20.93-3-2.3-5.92-4.32-8.2-7.4-1.12-1.52-2.12-3.13-3.08-4.75-.48-.82-2.06-4.75-3.4-3a1.14,1.14,0,0,0-1.78.46,7.61,7.61,0,0,0,0,2.61c0,2,0,4,.07,6s.1,4,.15,6c0,1.06,0,2.11.08,3.17a10.64,10.64,0,0,0,.1,2.77,1.16,1.16,0,0,0,1.54.75c.8-.33.69-1.19.67-1.9,0-2-.09-4-.15-6-.11-4-.25-8-.26-12C91.63,38.12,92.36,39.49,93.2,40.79Z"/><path d="M134,34.13c.08-1.14.83-3.87-1.1-3.87s-1.47,3.34-1.53,4.56c-.19,4.27-.09,8.54,0,12.8,0,1.47-.32,4.49.94,5.52s3.15-.18,4.11-1.21c2.5-2.67,3.51-6.76,4.63-10.14.17,2.26.24,4.52.29,6.78,0,1.15,0,2.29.07,3.44,0,.78-.11,2.11.38,2.79.74,1,1.95.33,2.07-.68a27.51,27.51,0,0,0-.13-3.26c0-2.42,0-4.84-.17-7.25-.11-2,0-4.36-.78-6.27-.27-.7-.73-1.42-1.6-1.28-1.06.16-1.36,1.43-1.65,2.27-.73,2.12-1.44,4.25-2.23,6.35s-1.53,4.21-3.08,5.76A125,125,0,0,1,134,34.13Zm8.4,3.77-.07.1h0A.86.86,0,0,1,142.4,37.9Zm-2.57-.3-.07.21Z"/><path d="M146.34,52.73l-.12-.14Z"/><path d="M152.75,28.58c1.17-1.46,3,.15,4,1a4.41,4.41,0,0,1,1.52,2.31c.18.79-.13,1.8.7,2.29,2,1.21,1.88-2,1.63-3a8.08,8.08,0,0,0-3.48-4.37,4.94,4.94,0,0,0-4.69-1,5,5,0,0,0-2.8,3.87c-.28,1.88.37,4,.78,5.78s1,3.79,1.54,5.67,1.12,3.81,1.71,5.71c.53,1.73,1.53,4.06.84,5.86s-2.76,1.23-4.09.53a9.7,9.7,0,0,1-3.68-3.81c-.32-.59-.48-1.24-1.28-1.29a1.17,1.17,0,0,0-1.24,1.2c.07,1.47,2.08,3.45,3.1,4.37,2.23,2,7.08,3.9,9,.49,1.06-1.86.67-4,.18-6-.6-2.36-1.35-4.68-2-7-.61-2.14-1.27-4.29-1.75-6.47C152.33,32.73,151.57,30.46,152.75,28.58Z"/><path d="M199.93,37.32a1.11,1.11,0,0,0-.54-.55.92.92,0,0,0-.61-1.32c-1.63-2-3.62-3.65-5.28-5.6a71.89,71.89,0,0,1-4.31-6.23,40,40,0,0,0-4.88-6.11,59.12,59.12,0,0,1-4.81-5.2,42.64,42.64,0,0,0-10.44-9.75c-1.33-.83-5-3.38-6.24-1.25-.47.83-.18,2.09-.09,3,.11,1.2.25,2.39.46,3.57s.18,3.29.88,4.16a1.32,1.32,0,0,0,2.32-.66c.14-1.18-.52-2.89-.74-4.06a40.35,40.35,0,0,1-.58-4.53,32.34,32.34,0,0,1,9.57,7.18c1.42,1.45,2.6,3.09,3.91,4.64s2.83,2.93,4.23,4.42c2.82,3,4.82,6.51,7.18,9.84a38.51,38.51,0,0,0,3.73,4.23c.7.73,1.37,1.49,2.07,2.23.53.55,1.16,1.58,1.86,1.93-1.37,1.75-2.88,3.4-4.16,5.21-1.4,2-2.53,4.07-3.78,6.13a104.41,104.41,0,0,1-8,11.79v0l-.17.21,0,0a44.74,44.74,0,0,0-5.18,8.19c-.69,1.36-1.48,2.66-2.3,4a24.11,24.11,0,0,1-2.68,4,24.3,24.3,0,0,0-2.18-8.55c1.18-.34.84-1.56-.15-1.84-1.25-.35-3,0-4.26.14-2.76.18-5.51.41-8.25.8-5.85.84-11.69,1.56-17.58,2.09-12.11,1.1-24.26,2.29-36.4,3-6,.33-12,.66-18.07.92s-11.84.7-17.76,1-12.11.16-18.15.46c-5.49.27-11,.73-16.45,1A33.49,33.49,0,0,1,23.49,75a8.44,8.44,0,0,1-3.28-1.46c-1.07-.81-1.23-2.33-1.41-3.58C18,64.38,17.28,58.8,16.68,53.23,16.1,47.86,15,42.46,14.82,37.06a58.25,58.25,0,0,1,.32-8.86c.24-2.09,0-5.9,2.42-6.59a37.37,37.37,0,0,1,8.32-.86c3.07-.16,6.14-.31,9.21-.4,5.77-.17,11.52-.3,17.27-.68s11.34-.47,17-.63c6-.17,12.05-.42,18.09-.43s11.77-.45,17.67-.67,11.67-.38,17.51-.5c12-.24,24-1.08,35.94-2.24,1-.1,6.72-.28,5.94-2.25-.47-1.17-2-.55-2.85-.35a31.1,31.1,0,0,1-4.41.56c-5.83.54-11.64,1.22-17.49,1.59-11.9.76-23.83.77-35.74,1.29-5.86.26-11.68.62-17.55.64s-11.95.27-17.93.44-11.83.33-17.75.7-11.82.42-17.74.67c-3,.14-6.09.25-9.13.44-2.62.17-6.07.06-8.43,1.36s-2.3,4.55-2.58,6.89a69.67,69.67,0,0,0-.48,8.67c.05,5.54,1.23,11,1.8,16.55s1.49,10.82,2.05,16.26c.25,2.54.58,5.16,2.9,6.59a16.42,16.42,0,0,0,7.39,2.09c5.55.51,11.17-.23,16.72-.54,6-.34,12-.52,18-.58s11.75-.6,17.62-.92c12-.66,24-1.11,35.93-2.12s24-1.49,35.84-3.26c5.36-.8,10.72-1.45,16.13-1.76-.25.67.47,1.7.68,2.34.32,1,.63,2,.89,2.93a18.85,18.85,0,0,1,.49,2.8c.1.83,0,2,.75,2.53,3,2.46,6.17-4.52,7.21-6.22,1.14-1.86,2.05-3.82,3.07-5.73a33.76,33.76,0,0,1,3.79-5.47,99.86,99.86,0,0,0,7.46-11c1.19-1.9,2.23-3.91,3.47-5.78,1.43-2.15,3.13-4.09,4.73-6.1A.9.9,0,0,0,199.93,37.32ZM170.84,77.15h0Z"/><path d="M181.73,60.36l-.12.14Z"/><path d="M14.62,82.11c.46-.86.93-1.71,1.4-2.56a8.62,8.62,0,0,0,1.29-2.38c.2-1.57-1.88-1.67-2.66-.74a14.5,14.5,0,0,0-1.31,2.31,9.49,9.49,0,0,0-1.4,2.62C11.76,82.77,14,83.3,14.62,82.11Z"/><path d="M24.13,80.86c-1.67-.69-2.65,1.7-3.38,2.77-1.06,1.55-2.13,3.09-3.18,4.65s-1.94,2.93-2.9,4.4c-.59.9-2.4,2.85-.92,3.71,1.65,1,2.45-1.22,3.12-2.27,1-1.63,2.09-3.24,3.16-4.85s2.18-3.21,3.28-4.81C23.89,83.6,25.92,81.58,24.13,80.86Z"/><path d="M33.33,79.89C31.79,79.25,31,81,30.37,82s-1.9,2.57-.32,3.24,2.15-1,2.77-2S35.06,80.59,33.33,79.89Z"/><path d="M40.87,84c.59-.67,1.88-1.63.78-2.5s-2,.18-2.63.91-1.28,1.43-.38,2.15A1.57,1.57,0,0,0,40.87,84Z"/><path d="M49.52,79.87c-1.52-.62-2.34,1-3.05,2.06-1,1.37-1.88,2.78-2.73,4.22s-4.72,7-2.13,7.72c1.48.43,1.87-.93,2.34-2a45.47,45.47,0,0,1,2.28-4.38c.84-1.47,1.74-2.89,2.7-4.28C49.54,82.35,51.3,80.59,49.52,79.87Z"/><path d="M55.49,86.41c.83-.24,1-1.15,1.39-1.84s.88-1.49,1.34-2.22c.35-.55,1-1.13.71-1.83a1.4,1.4,0,0,0-1.62-.71c-1.25.31-2.28,2.74-2.85,3.78-.33.59-1,1.43-.7,2.14A1.44,1.44,0,0,0,55.49,86.41Z"/><path d="M67.45,79.2c-1.44,0-2.91,2.61-3.75,3.63-1.25,1.52-2.56,3-3.69,4.62s-2.39,3.48-3.53,5.27c-.61,1-3.19,3.82-1.3,4.64S58,95.08,58.69,94c1.17-1.9,2.4-3.74,3.66-5.58s2.58-3.3,3.9-4.9c.6-.73,1.24-1.42,1.84-2.15S69.05,79.2,67.45,79.2Z"/><path d="M78,78.9c-1.83-.74-3.4,2.6-4.25,3.77-.69,1-3.65,4-1.64,4.88,1.86.81,3.23-2.76,4-3.9C76.8,82.73,80,79.73,78,78.9Z"/><path d="M84.43,79.57c-2.06,0-1.77,2.79.25,2.66S86.43,79.57,84.43,79.57Z"/><path d="M98.2,77.13c-.78-1.82-2.54,0-3.17.78-1.11,1.39-2.19,2.82-3.23,4.27-.9,1.24-1.73,2.58-2.51,3.9-.61,1-2.59,3.5-1.91,4.7a1.49,1.49,0,0,0,1.67.56c.69-.2.82-.72,1.08-1.31a35.14,35.14,0,0,1,2.55-4.56c.9-1.42,1.85-2.77,2.85-4.12.56-.76,1.12-1.52,1.71-2.26C97.66,78.56,98.53,77.91,98.2,77.13Z"/><path d="M105.14,76.62c-2-.81-3.45,2.72-4.33,4-.71,1-3.87,4.13-1.76,5,1.94.83,3.48-2.81,4.31-4C104.05,80.65,107.26,77.48,105.14,76.62Z"/><path d="M116.66,76.34c-1.38-.56-2.06.81-2.67,1.75s-1.62,2.16-.18,2.78c1.28.54,2-.66,2.53-1.56S118.21,77,116.66,76.34Z"/><path d="M124.43,74.75c-1.55-.64-2.14,1.38-2.66,2.4q-1.17,2.25-2.33,4.51t-2.27,4.61c-.48,1-2,3.28-.09,3.62,1.34.24,1.65-1.27,2.08-2.19.7-1.51,1.43-3,2.17-4.49s1.59-3.12,2.4-4.68C124.18,77.64,126,75.38,124.43,74.75Z"/><path d="M134.45,73.9c-1.48-.6-2,.92-2.57,1.94s-1.88,2.75-.36,3.42c1.35.59,1.93-.75,2.42-1.71S136.05,74.55,134.45,73.9Z"/><path d="M142.37,73.3c-1.21-.49-1.77.56-2.24,1.45-.69,1.29-1.38,2.59-2,3.9s-1.28,2.47-1.87,3.73c-.4.85-1.31,2.11-.18,2.77s1.79-.23,2.18-1.12c.56-1.26,1.2-2.49,1.82-3.72s1.34-2.6,2-3.89C142.49,75.58,143.83,73.9,142.37,73.3Z"/><path d="M150.56,77.12c1.47.59,2-.88,2.59-1.91s1.82-2.51.51-3.3-2.11.61-2.63,1.59S148.92,76.45,150.56,77.12Z"/><path d="M160.69,70.91c-2-.82-3.19,3-3.89,4.27-1.12,2-2.28,4-3.35,6s-2,3.92-2.91,5.92c-.55,1.19-3,4.67-.85,5.3,2,.58,2.6-2.76,3.16-4,.88-2,1.79-3.9,2.78-5.81,1.07-2.07,2.24-4.09,3.37-6.12C159.59,75.42,162.58,71.68,160.69,70.91Z"/><path d="M162.67,82.82c1.07-2.14,2.2-4.26,3.32-6.38.4-.75,1-1.61.21-2.3a1.56,1.56,0,0,0-2,.2,15.57,15.57,0,0,0-1.67,3.06l-1.69,3.18c-.42.8-1.27,1.85-.31,2.59A1.55,1.55,0,0,0,162.67,82.82Z"/><path d="M170.37,79.84c-1.78-.72-2.63,1.89-3.25,3-1,1.76-1.85,3.53-2.71,5.34s-1.53,3.39-2.19,5.13c-.41,1.08-1.58,3.28.34,3.6s2-2.15,2.42-3.34c.68-1.83,1.5-3.59,2.32-5.36.72-1.55,1.54-3.05,2.35-4.56C170.15,82.77,172.09,80.54,170.37,79.84Z"/><path d="M159.2,7.84c-1.21,1.13,1,2.43,2,1.43C162.34,8.05,160.18,6.93,159.2,7.84Z"/><path d="M154.63,10.4c1.75.71,3-2.48,3.68-3.58.61-.91,3.4-3.85,1.34-4.51-1.63-.52-2.74,2.34-3.43,3.38C155.63,6.57,152.79,9.65,154.63,10.4Z"/><path d="M5.65,35.36c1.76.72,2.46-1.76,3-2.9s2.19-3.16.39-3.72c-1.62-.51-2.2,1.61-2.76,2.69S4,34.69,5.65,35.36Z"/><path d="M1.84,50.22c1.5.24,1.82-1.87,2.31-2.86.74-1.49,1.53-3,2.4-4.39a49.23,49.23,0,0,1,2.88-4c.6-.77,3-3.2.62-3.43-1.3-.14-2.33,1.93-3,2.79a44.74,44.74,0,0,0-2.88,4.08c-.85,1.41-1.62,2.85-2.33,4.33C1.39,47.64,0,49.93,1.84,50.22Z"/><path d="M10,45.66c-1.39-.57-2.14,1.1-2.75,2s-2.3,2.73-.7,3.44c1.37.59,2-.94,2.56-1.84S11.73,46.36,10,45.66Z"/><path d="M5.64,62.82C6.8,61.18,8,59.56,9.17,57.94l1.74-2.4c.46-.64,1.63-1.7,1.7-2.49a1.07,1.07,0,0,0-1-1.09c-.75-.08-1.08.41-1.48.95C8.9,54.53,7.73,56.18,6.53,57.8S4.17,61,3.05,62.59C2,64.05.6,65.84.13,67.59A1,1,0,0,0,.9,69c.87.22,1.23-.28,1.57-.94A46.87,46.87,0,0,1,5.64,62.82Z"/><path d="M9.55,63.15c-.72.87-3.06,3.26-1.2,4.07,1.63.71,2.54-1.66,3.33-2.62s3.32-2.67,1.88-3.81S10.33,62.19,9.55,63.15Z"/><path d="M13.83,66.38c-1.25-.5-1.9.89-2.49,1.72-1,1.34-1.94,2.69-3,4s-1.9,2.35-2.83,3.55C5,76.39,3.11,78,4.17,79,5.41,80.06,6.44,78.19,7,77.4c1-1.29,2-2.55,3-3.82s2-2.64,3-4C13.53,68.86,15.43,67,13.83,66.38Z"/></svg>