<svg xmlns="http://www.w3.org/2000/svg" viewBox="0 0 837.7 156.26"><defs><style>.cls-1{stroke:#000;stroke-miterlimit:10;stroke-width:3px;}</style></defs><title>heading-latest-episode</title><g id="Layer_2" data-name="Layer 2"><g id="Draw_Layer" data-name="Draw Layer"><path class="cls-1" d="M4.94,53.15a3.76,3.76,0,0,0-3.43,4c.9,10.21,1.91,20.41,2.86,30.6.4,4.37.94,8.72,1.4,13.08.41,3.85.92,7.69,1.42,11.53.16,1.35.39,2.69.6,4,.32,2,.59,4,1,5.93a2,2,0,0,0,0-.24c.34,1.63.68,3.26,1,4.89a1.16,1.16,0,0,1,0-.18c0,.14,0,.27.08.4l.12.56-.09-.45c.34,1.59.76,3.17,1.2,4.73l.75,2.66c.66,2.3,1.55,5,3.86,6.16a5.54,5.54,0,0,0,3.31.39,11.05,11.05,0,0,0,4-1.66c2.08-1.25,4-2.67,6-4.05A108.65,108.65,0,0,1,41.33,128a70.34,70.34,0,0,1,8.36-3.51l4.69-1.59a78.17,78.17,0,0,1,8.19-2.38l.87-.18a3.55,3.55,0,0,0,1.51-1,3.61,3.61,0,0,0-.33-5.1,3.44,3.44,0,0,0-2.66-.89,119,119,0,0,0-14.4,4.29A81,81,0,0,0,33.69,124c-2.81,1.59-5.48,3.39-8.17,5.18-2.12,1.41-4.16,2.95-6.35,4.26-.41-1.35-.74-2.73-1.09-4.09s-.66-2.7-1-4.05c-.33-1.56-.7-3.11-.94-4.67-.36-2.34-.75-4.66-1.12-7-.26-1.63-.45-3.26-.66-4.89-.27-2-.58-4.08-.8-6.12-.85-7.83-1.73-15.65-2.5-23.48-.73-7.52-1.46-15-2.13-22.59a3.78,3.78,0,0,0-3.72-3.43Zm12.5,80.92.27,0-.27,0Zm-8.7-12-.15-.73.15.73Z"/><path class="cls-1" d="M90.27,30.81a4.45,4.45,0,0,0-1.73,1.13,6.37,6.37,0,0,0-1.25,5.91c-.23,1.13-.4,2.28-.62,3.41-.38,1.93-.83,3.83-1.28,5.74-.91,3.85-1.86,7.69-2.76,11.55-.84,3.59-1.67,7.18-2.4,10.8-.77,3.83-1.6,7.66-2.29,11.52-.73,4-1.53,8-2.18,12.09q-1.19,7.35-2.38,14.69c-.62,3.76-1.1,7.54-1.64,11.32s-1,7.32-1.43,11q-.82,6.75-1.6,13.5a3.74,3.74,0,0,0,.53,2.63,3.57,3.57,0,0,0,2.24,1.48,3.5,3.5,0,0,0,4.09-2.77q1-8.56,2.07-17.13c.46-3.77,1-7.53,1.59-11.28q.75-5.2,1.61-10.39c.7-4.11,1.31-8.23,2.09-12.33,1.51-8,3-16,4.77-23.92,1-4.31,2-8.63,3-12.93.86-3.68,1.77-7.34,2.49-11,.22-1.11.42-2.21.61-3.32.62,1.11,1.23,2.21,1.82,3.34a148.4,148.4,0,0,1,8,20.27q2.44,7.58,4.9,15.16c1,3.19,1.88,6.44,2.8,9.66,1,3.62,2.14,7.23,3.09,10.87,1.62,6.27,3.25,12.54,4.94,18.8,1.25,4.61,2.46,9.24,4,13.77a53.52,53.52,0,0,0,5.3,11.53,22.1,22.1,0,0,0,4.5,5.1,23.52,23.52,0,0,0,5.32,3.44,3.67,3.67,0,0,0,3.27-6.58c-.51-.26-1-.52-1.45-.82a25.09,25.09,0,0,1-3.61-3.14,28.39,28.39,0,0,1-3-4.6c-3.22-6.63-5.06-13.82-7-20.89q-1.55-5.58-3-11.17c-.93-3.47-1.82-6.94-2.83-10.38q-2.22-7.63-4.45-15.27c-.73-2.47-1.55-4.9-2.36-7.35l-4.41-13.36c-.93-2.86-2-5.67-3.16-8.45-.94-2.36-2-4.68-3-7-1.22-2.56-2.57-5-4-7.49-.49-.87-1-1.74-1.51-2.59a16.73,16.73,0,0,0-2.44-2.93,5.91,5.91,0,0,0-.8-.62,5.29,5.29,0,0,0-2.11-1,7.58,7.58,0,0,0-1.15-.11,3.16,3.16,0,0,0-1.12.18ZM87.78,36c0,.12-.08.23-.11.35h0l.12-.34Z"/><path class="cls-1" d="M137,63.82q-11.9,1.89-23.75,4-6.66,1.22-13.3,2.52c-3.77.75-7.49,1.81-11.17,2.92L83.13,75c-1.88.57-3.73,1.23-5.59,1.9a96.36,96.36,0,0,0-11.05,4.77c-3.64,1.86-7.17,3.95-10.72,6a3.52,3.52,0,0,0-1.53,2.31,3.62,3.62,0,0,0,2.85,4.23,3.85,3.85,0,0,0,2.71-.55c3.56-2,7.11-4.07,10.74-5.95,2.21-1.08,4.48-2,6.78-2.92,1.31-.5,2.63-1,4-1.45.9-.32,1.8-.66,2.72-.93l6.17-1.82c1.5-.45,3-1,4.51-1.32l5.67-1.38q18.57-3.45,37.2-6.54A4,4,0,0,0,140.08,70a3.77,3.77,0,0,0-2.72-6.24,2.56,2.56,0,0,0-.39,0Z"/><path class="cls-1" d="M192.22,19a24.17,24.17,0,0,0-3.17.56c-1.42.29-2.84.56-4.25.86l.92-.2-5.9,1.25c-2,.44-4,1-6,1.47-1.4.34-2.78.71-4.16,1.11-3.72,1.06-7.43,2.11-11.12,3.26-3.85,1.2-7.71,2.38-11.52,3.72-1.84.64-3.7,1.24-5.51,1.93L135,35.43c-7.21,2.76-14.4,5.6-21.6,8.4a3.42,3.42,0,0,0,2.26,6.46c9.06-3.52,18.12-7,27.21-10.46,1.46-.55,2.95-1,4.43-1.54,1.74-.59,3.48-1.25,5.25-1.78l6.35-1.94c1.71-.52,3.41-1.09,5.14-1.56l9.71-2.7c2.58-.72,5.22-1.27,7.83-1.89l4.67-1,2.77-.55a28.6,28.6,0,0,1,4.4-.71l.24.1a3.75,3.75,0,0,0,2.79.18,3.61,3.61,0,0,0,.42-6.63l-.55-.24-1.47-.51A17.49,17.49,0,0,0,193,19l-.75,0Zm.73,7.13.23,0-.23,0Zm.59.07a3.2,3.2,0,0,1,.52.18l-.52-.18Zm-12.36,2.31-.47.1.47-.1Zm-1.84-6.94.48-.1.14,0-.62.13Zm.62-.13.3-.06-.3.06Z"/><path class="cls-1" d="M160.4,26.52a3.5,3.5,0,0,0-2.35,1.18,3.34,3.34,0,0,0-.86,2.57c.5,2.6,1,5.19,1.47,7.79.23,1.24.37,2.51.54,3.76.68,4.87,1.36,9.76,2.05,14.64.42,3,.71,6,1.06,9l1.86,15.87c.86,7.38,1.56,14.78,2.32,22.17.4,4,.91,7.89,1.38,11.84a90.38,90.38,0,0,0,4,17.94c.13.41.31.82.47,1.23a3.64,3.64,0,0,0,6.88-2.41c-.47-1.2-.87-2.43-1.22-3.67-.59-2.06-1.18-4.13-1.66-6.23-1.1-5.48-1.64-11.07-2.31-16.62-.39-3.25-.74-6.5-1.09-9.75Q171.68,84,170.26,72.21c-.77-6.38-1.47-12.77-2.38-19.12q-1-6.8-1.94-13.58c-.47-3.28-1.16-6.52-1.79-9.77A3.79,3.79,0,0,0,163,27.38a3.55,3.55,0,0,0-2.32-.87Z"/><path class="cls-1" d="M189,40.11a3.41,3.41,0,0,0-2.3,1.15,3.35,3.35,0,0,0-.84,2.51c2.74,17.55,5.49,35.09,8,52.67q.8,5.64,1.61,11.28c.5,3.54,1.11,7.07,2,10.55a49.65,49.65,0,0,0,2.33,7.24,27.45,27.45,0,0,0,1.69,3.39,18,18,0,0,0,2.89,3.45c3.92,3.93,9.92,5.14,15.29,4.64a22.59,22.59,0,0,0,7.49-2.23,67,67,0,0,0,7.5-4.18c3.07-2,6-4.09,8.95-6.25l6.35-4.68q4.19-3.09,8.36-6.19c2.81-2.08,5.63-4.14,8.37-6.31a3.89,3.89,0,0,0,1.55-2.34,3.72,3.72,0,0,0-.56-2.76,3.68,3.68,0,0,0-2.35-1.55,3.53,3.53,0,0,0-2.75.56c-4.5,3.61-9.2,7-13.82,10.42L239.82,118a113.42,113.42,0,0,1-15,9.78,25.06,25.06,0,0,1-4.51,1.71,19.36,19.36,0,0,1-3.87.29,21.88,21.88,0,0,1-3.94-.73,13.62,13.62,0,0,1-1.88-.92,18.39,18.39,0,0,1-2.14-1.9,15.07,15.07,0,0,1-1.49-2.19,50,50,0,0,1-3.44-10.72c-.9-4.54-1.57-9.14-2.25-13.73l-2-13.29c-1-6.76-2.08-13.51-3.14-20.25q-1.8-11.41-3.59-22.83a3.57,3.57,0,0,0-1.15-2.3,3.4,3.4,0,0,0-2.25-.85Zm14.49,72.6c0,.13,0,.25.08.38,0-.13-.06-.25-.08-.38Z"/><path class="cls-1" d="M256,32.84c-4.21.35-8.41.81-12.61,1.25-3.58.37-7.17.7-10.74,1.17l-4.1.55c-1.09.15-2.17.27-3.25.51-1.73.37-3.46.7-5.18,1.12-1.94.47-3.9.89-5.83,1.41l-7,1.9a79.59,79.59,0,0,0-9.16,3c-2.11.85-4.14,1.87-6.18,2.85a92.79,92.79,0,0,0-9.15,5,3.53,3.53,0,1,0,3.95,5.86c2-1.24,4.11-2.36,6.19-3.48l5.07-2.4a70.87,70.87,0,0,1,12.38-4.14c2.18-.57,4.35-1.2,6.55-1.71l6-1.42,3.74-.77c1.25-.26,2.56-.34,3.83-.51q4.26-.55,8.53-1c5.85-.6,11.69-1.25,17.55-1.72a3.72,3.72,0,0,0-.28-7.43Z"/><path class="cls-1" d="M261.41,49.48c-7.82,2.7-15.68,5.3-23.51,8-3.64,1.24-7.3,2.47-11,3.63-4.14,1.32-8.29,2.57-12.45,3.8-.59.18-1.22.28-1.82.42l-1.64.36-3.47.51c-1.28.18-2.59.25-3.87.38a66.41,66.41,0,0,1-7.05.21A3.47,3.47,0,0,0,194.2,68a3.6,3.6,0,0,0,.33,5.09,3.81,3.81,0,0,0,2.65.89,83.61,83.61,0,0,0,12-.72c1.16-.15,2.31-.29,3.45-.54l3.62-.77c2-.43,3.93-1.11,5.87-1.67,7.5-2.17,14.89-4.69,22.29-7.17l19.45-6.51a3.75,3.75,0,0,0-1.28-7.3,3.65,3.65,0,0,0-1.21.2Z"/><path class="cls-1" d="M294,14.27a41.83,41.83,0,0,0-8.42.92,16.1,16.1,0,0,0-3.65,1.2,25.39,25.39,0,0,0-4.05,2.4,24.44,24.44,0,0,0-3,2.7,21.67,21.67,0,0,0-2.35,3.19,26.64,26.64,0,0,0-3.14,7.74,29,29,0,0,0-.73,8.1,47.52,47.52,0,0,0,1.18,9,64.58,64.58,0,0,0,2.34,7.91,87.14,87.14,0,0,0,3.43,8.38,85.34,85.34,0,0,0,4.09,7.59c.71,1.17,1.47,2.33,2.23,3.47.64,1,1.27,2,2,2.9,3.36,4.59,6.66,9.21,10.06,13.76,1.75,2.34,3.54,4.65,5.24,7l3.2,4.47a67.08,67.08,0,0,1,4.08,6.56,9.7,9.7,0,0,1,.45,1.21c0,.31.07.62.08.93a4.86,4.86,0,0,1-.1.55c-.14.31-.29.6-.45.9s-.37.45-.57.67-.47.33-.72.48a17,17,0,0,1-2.88,1,41,41,0,0,1-8.65.48,49.68,49.68,0,0,1-11.51-2.24,24.53,24.53,0,0,1-4.16-2,20.74,20.74,0,0,1-2.8-2.58,28.41,28.41,0,0,1-3.05-4.57,31.75,31.75,0,0,1-1.51-3.9,3.63,3.63,0,0,0-6.85,2.4,29.86,29.86,0,0,0,1.71,4.34,28.29,28.29,0,0,0,4.85,7.18,20.94,20.94,0,0,0,6.33,4.75,30.25,30.25,0,0,0,4.09,1.57c1.53.52,3.09.91,4.66,1.28a45.25,45.25,0,0,0,8.52,1.08,43.27,43.27,0,0,0,8.66-.39,18.8,18.8,0,0,0,7.41-2.62,11.31,11.31,0,0,0,4.51-7.5,13.07,13.07,0,0,0-.41-4.4,8.24,8.24,0,0,0-.65-1.64c-.31-.65-.66-1.29-1-1.93a52.36,52.36,0,0,0-3.19-5.27l-3.93-5.52c-2.25-3.14-4.68-6.16-7-9.28-5.36-7.35-11-14.54-15.22-22.65-1.22-2.5-2.3-5-3.28-7.64A72.41,72.41,0,0,1,277,47.29a45.21,45.21,0,0,1-.86-9.64,25.28,25.28,0,0,1,1-5.24A23.91,23.91,0,0,1,279.29,28a17.93,17.93,0,0,1,2.13-2.4,22.47,22.47,0,0,1,3.37-2.25,16,16,0,0,1,2.71-.91,45.87,45.87,0,0,1,9.58-.65,50.29,50.29,0,0,1,5.59.73A44.65,44.65,0,0,1,308.12,24,25,25,0,0,1,313,26.23,22.4,22.4,0,0,1,316,28.78a18.81,18.81,0,0,1,1.84,2.72,19.47,19.47,0,0,1,1.1,3,11,11,0,0,1,.13,2.07,39.7,39.7,0,0,1-1,5.71,3.63,3.63,0,0,0,2.86,4.24,3.68,3.68,0,0,0,4.25-2.86A41.12,41.12,0,0,0,326.28,36a14.31,14.31,0,0,0-.54-4A17.76,17.76,0,0,0,324,27.79a21.1,21.1,0,0,0-4.93-6.11,24,24,0,0,0-7.57-4.31,53.68,53.68,0,0,0-8.13-2.29,48.26,48.26,0,0,0-9.29-.81Z"/><path class="cls-1" d="M366.13,3.19c-4,0-7.92.14-11.87.21-2.93.06-5.86.08-8.79.17-14,.46-27.94.91-41.9,1.49a3.39,3.39,0,0,0,.52,6.76c10.8-.44,21.58-.78,32.38-1.12l10.2-.32c3.84-.12,7.7-.12,11.54-.18,10.67-.16,21.34-.27,32-.26a3.38,3.38,0,0,0,2.36-1.18,3.49,3.49,0,0,0-.32-4.93A3.71,3.71,0,0,0,389.67,3c-7.84,0-15.69.13-23.54.22Z"/><path class="cls-1" d="M348.28,7.79a3.75,3.75,0,0,0-3.43,4c.34,2.82.66,5.66,1,8.49.23,2.13.51,4.26.7,6.4.42,4.67.82,9.34,1.23,14,.38,4.39.57,8.8.86,13.19.27,4.12.43,8.24.63,12.36.38,7.9.6,15.81.91,23.72.05,1.39.14,2.77.23,4.16s.2,2.92.29,4.37c.05.68.05,1.38.14,2.06.26,2.1.52,4.21.79,6.31.12,1,.35,2.06.55,3.07.29,1.44.62,2.86,1,4.27a19.57,19.57,0,0,0,1.77,4,13.86,13.86,0,0,0,2.31,2.87,3.77,3.77,0,0,0,1.81.89,3.88,3.88,0,0,0,4.54-3.06A3.72,3.72,0,0,0,363,116a12.69,12.69,0,0,1-1.42-1.94,24.37,24.37,0,0,1-1.39-4.52c-.57-2.9-.9-5.83-1.27-8.77-.24-1.92-.32-3.86-.46-5.8-.32-4.56-.53-9.13-.74-13.7q-.3-6.4-.59-12.8c-.19-4.18-.48-8.35-.72-12.53-.21-3.48-.49-7-.75-10.45q-.33-4.62-.75-9.24c-.33-3.58-.6-7.17-1-10.74-.53-4.77-1.06-9.53-1.63-14.3a3.78,3.78,0,0,0-3.7-3.43Z"/><path class="cls-1" d="M423.41,30.73A3.84,3.84,0,0,0,420.84,32a4.1,4.1,0,0,0-.93,2.81c-.05,1.24-.09,2.48-.14,3.72a2.74,2.74,0,0,0,.06.56c0,1.41-.08,2.83-.15,4.25q-.19,4.08-.41,8.17-.3,6.3-.62,12.62-.39,7.32-.79,14.63l-.3,5.67c-.12,2.26-.16,4.54-.21,6.8q0,2.24.09,4.47c.08,1.47.29,3,.46,4.41a20.94,20.94,0,0,0,1,4.77,10.06,10.06,0,0,0,3.4,4.39,18.07,18.07,0,0,0,5,2.61,25.06,25.06,0,0,0,5.83,1.41,35.31,35.31,0,0,0,13.05-1.3,64.31,64.31,0,0,0,11.54-4.8c2-1,4.06-2,6.05-3a54.77,54.77,0,0,0,5.43-3.1A3.81,3.81,0,1,0,465,94.77a52,52,0,0,1-5.19,2.94c-2.4,1.19-4.82,2.37-7.22,3.58l.68-.34a52.81,52.81,0,0,1-11.07,4.17,36.09,36.09,0,0,1-7.33.59,22.11,22.11,0,0,1-4.41-.89,19.74,19.74,0,0,1-3-1.41,10.8,10.8,0,0,1-.89-.76,3.27,3.27,0,0,1-.25-.36,12.05,12.05,0,0,1-.4-1.2c-.15-.89-.26-1.79-.36-2.68-.15-1.35-.3-2.69-.38-4-.19-3.23,0-6.47.1-9.7,0-1.72.16-3.43.24-5.15q.4-7.84.8-15.68c.19-3.79.36-7.59.54-11.39.24-4.88.55-9.77.63-14.67,0-1.18,0-2.37.05-3.55a3.69,3.69,0,0,0-1.28-2.56,3.83,3.83,0,0,0-2.52-1ZM453.24,101l.2-.1-.2.1Z"/><path class="cls-1" d="M474,21.39l-2.62.58c-5.27,1.1-10.53,2.19-15.81,3.19l-10.52,2c-4.09.78-8.18,1.66-12.22,2.69-2.15.55-4.27,1.23-6.38,1.92-2.37.78-4.76,1.53-7.14,2.29a3.39,3.39,0,0,0,2.24,6.4c3-1,6-1.93,9.05-2.88s6.25-1.75,9.43-2.43c6.24-1.3,12.52-2.36,18.79-3.57,5.85-1.12,11.71-2.2,17.54-3.44a3.37,3.37,0,0,0,2-1.78,3.56,3.56,0,0,0-1.6-4.78,3.19,3.19,0,0,0-1.47-.34,6,6,0,0,0-1.3.17ZM440.43,35.05l-.36.08.36-.08Zm-.37.08-.49.1.49-.1Z"/><path class="cls-1" d="M477.69,38.64c-7.52,1.8-15,3.64-22.49,5.72-8.67,2.41-17.18,5.39-25.88,7.7-.82.22-1.64.41-2.47.59-2.79.56-5.6,1-8.43,1.32a3.4,3.4,0,0,0,.53,6.78q3.9-.45,7.77-1.17c3-.56,5.93-1.34,8.85-2.17,2.45-.7,4.89-1.43,7.34-2.15,3.38-1,6.77-2,10.17-3,3.82-1.06,7.64-2.11,11.48-3.06,3.66-.91,7.33-1.78,11-2.67l4.53-1.07a3.5,3.5,0,0,0,2.06-1.81,3.64,3.64,0,0,0-1.64-4.87,3.36,3.36,0,0,0-1.51-.35,5.5,5.5,0,0,0-1.31.18Z"/><path class="cls-1" d="M487.05,22.73a3.64,3.64,0,0,0-3.32,3.88c.41,4.45.95,8.88,1.5,13.31.2,1.65.4,3.29.58,4.94.24,2.17.56,4.34.72,6.52.27,3.81.63,7.62.78,11.44.18,4.5.36,9,.44,13.51.08,4.26.11,8.52.14,12.77,0,1.9,0,3.8.05,5.7,0,1.11.05,2.21.09,3.31a14,14,0,0,0,.79,5,3.91,3.91,0,0,0,1.82,2.06,3.64,3.64,0,0,0,5.05-4.46l-.07-.22a30.43,30.43,0,0,1-.11-3.17c0-1.14,0-2.28,0-3.43,0-1.78,0-3.57,0-5.36,0-4-.06-8-.17-12.08-.12-4.56-.32-9.12-.54-13.68-.19-3.95-.57-7.89-.89-11.82-.16-2-.47-4-.7-6-.21-1.76-.43-3.51-.66-5.26-.58-4.54-1.16-9.09-1.59-13.65a3.66,3.66,0,0,0-3.6-3.33Z"/><path class="cls-1" d="M520.73,8.6a35.71,35.71,0,0,0-8.56,1.65,70,70,0,0,0-8.55,3.15,65.75,65.75,0,0,0-13,7.16,32.42,32.42,0,0,0-5.11,4.68,30.67,30.67,0,0,0-2.16,3,32.58,32.58,0,0,0-1.87,3.68,3.81,3.81,0,0,0,6.82,3.38c.62-1.24,1.19-2.5,1.91-3.69a24.15,24.15,0,0,1,3-3.36,45.81,45.81,0,0,1,8.4-5.42A73.37,73.37,0,0,1,517.57,17a28.88,28.88,0,0,1,6-.44,23.59,23.59,0,0,1,4.78.91,26.32,26.32,0,0,1,3.3,1.47,14.92,14.92,0,0,1-.5,2.39,18.46,18.46,0,0,1-1.52,3,37.14,37.14,0,0,1-3,3.63c-1.27,1.39-2.59,2.74-4,4-9.27,7.87-20.52,12.8-31.17,18.47a3.72,3.72,0,0,0,.42,6.43,3.6,3.6,0,0,0,2.89.18q6.24-3,12.38-6.12c2-1,3.88-2,5.81-3.1,1.2-.65,2.38-1.32,3.55-2a86.28,86.28,0,0,0,7.69-5.19A57.16,57.16,0,0,0,530.65,35a45.21,45.21,0,0,0,5.75-6.84,20.67,20.67,0,0,0,2.91-7.26,9.84,9.84,0,0,0,0-3.86,6.57,6.57,0,0,0-.82-2.36A6.86,6.86,0,0,0,537,12.92a16.9,16.9,0,0,0-3.18-1.8,30.33,30.33,0,0,0-4-1.55,23.77,23.77,0,0,0-7.37-1c-.55,0-1.09,0-1.63,0Zm11,10.35h0l0,.2c0-.07,0-.14,0-.21Zm.57.43.09.1-.09-.1Z"/><path class="cls-1" d="M543.76,10.49a3.65,3.65,0,0,0-2,1.81,3.83,3.83,0,0,0-.18,2.82c.58,2.18,1.11,4.36,1.59,6.57,1.42,7.16,1.77,14.48,2.19,21.75.1,1.72.25,3.45.29,5.17l.18,7.39c.19,7.83.08,15.66,0,23.49,0,3.59-.07,7.17-.06,10.76,0,1.44.06,2.88.11,4.32,0,.77.09,1.55.13,2.32a21.51,21.51,0,0,0,.28,2.28c.09.51.2,1,.33,1.51a7.6,7.6,0,0,0,.76,1.54,3.67,3.67,0,0,0,1.43,1.25,3.7,3.7,0,0,0,5.14-4.54c-.07-.15-.14-.3-.2-.46-.17-1.3-.17-2.62-.21-3.94,0-1,0-2.11-.06-3.17,0-1.85,0-3.7,0-5.55.05-4.31.06-8.62.08-12.92s0-8.74-.1-13.11c0-3.94-.24-7.88-.38-11.82,0-1.34-.17-2.68-.25-4-.17-2.47-.32-4.93-.49-7.4-.2-3-.52-6.09-.89-9.12a110.07,110.07,0,0,0-3-14.7,3.54,3.54,0,0,0-3.48-2.42,3.43,3.43,0,0,0-1.15.19Z"/><path class="cls-1" d="M579.15,5.49a5.43,5.43,0,0,0-2.23,1.65,8.81,8.81,0,0,0-1,1.66,14.55,14.55,0,0,0-.6,1.41,20.35,20.35,0,0,0-1.14,4,36.52,36.52,0,0,0-.49,9.1A60.54,60.54,0,0,0,575,32c.63,3,1.4,5.89,2.27,8.79A93.36,93.36,0,0,0,580.49,50c1.1,2.67,2.21,5.35,3.31,8,1.52,3.67,3.08,7.33,4.65,11,2.91,6.79,6.1,13.58,7.74,20.81a25.2,25.2,0,0,1,.42,4.59,17.43,17.43,0,0,1-.45,2.48c-.09.19-.18.37-.28.56l-.24.26A13.61,13.61,0,0,1,593.71,99a12.73,12.73,0,0,1-6.27,1.37,15.45,15.45,0,0,1-2.6-.48,22.43,22.43,0,0,1-3.37-1.75,27.34,27.34,0,0,1-4.21-3.76,35,35,0,0,1-3.14-4.46c-.4-.66-.75-1.35-1.12-2s-.55-1.12-.81-1.69a4.08,4.08,0,0,0-1.9-2.13,3.78,3.78,0,0,0-2.93-.19,3.84,3.84,0,0,0-2.14,1.9,3.65,3.65,0,0,0-.18,2.93,46.24,46.24,0,0,0,5.42,9.24,32.21,32.21,0,0,0,5.54,5.53,22.61,22.61,0,0,0,8.09,4,18.64,18.64,0,0,0,8.46-.09,19.38,19.38,0,0,0,7.42-3.33,9.68,9.68,0,0,0,2.78-3.09A15.38,15.38,0,0,0,604,97.24a21.9,21.9,0,0,0-.21-8.94c-1.48-7.29-4.56-14.07-7.49-20.85-1.5-3.49-3-7-4.48-10.47l-4.34-10.43c-.78-1.84-1.43-3.72-2.08-5.61a104.23,104.23,0,0,1-3.2-11.5,47.87,47.87,0,0,1-1.08-10.6,26.93,26.93,0,0,1,.86-5.28c0-.14.11-.28.16-.43l1.24,1.12c.85.78,1.74,1.5,2.6,2.26,1.3,1.17,2.6,2.36,3.83,3.6l4,4Q599.65,30,605.38,36a3.54,3.54,0,0,0,2.68.89,3.62,3.62,0,0,0,2.44-1.22,3.7,3.7,0,0,0,.9-2.68,3.84,3.84,0,0,0-1.23-2.44q-6.58-6.87-13.26-13.63c-2-2-4-4-6-5.89-1-.91-2-1.77-3-2.68a17.3,17.3,0,0,0-3-2.32A8.36,8.36,0,0,0,583,5.3l-.5-.1c-.5,0-1-.07-1.5-.09a7.18,7.18,0,0,0-1.83.38Zm8.85,94.9h0Z"/><path class="cls-1" d="M644.14,11.42a23.91,23.91,0,0,0-3.07,1,27.74,27.74,0,0,0-5.25,2.84,31.11,31.11,0,0,0-8.36,8.37,47.89,47.89,0,0,0-3.32,5.44c-.87,1.72-1.71,3.47-2.46,5.25a115.91,115.91,0,0,0-4.2,11.24c-.55,1.79-1.11,3.58-1.55,5.4a39.24,39.24,0,0,0-.79,5.29c-.39,4-.52,8-.57,12A94.32,94.32,0,0,0,615,79.38a54.35,54.35,0,0,0,1,6.32A47.36,47.36,0,0,0,617.65,91a17.29,17.29,0,0,0,2.81,5.12,25.7,25.7,0,0,0,2.28,2.5c.71.68,1.53,1.28,2.3,1.89,3.31,2.59,7,4.84,11.26,5.41a27.7,27.7,0,0,0,13.75-1.31,29.42,29.42,0,0,0,10.36-7.22,41.35,41.35,0,0,0,3.53-4.28,54.63,54.63,0,0,0,3.54-5.41A67,67,0,0,0,672,77.45c2.73-7.48,5.34-15.25,5.11-23.33A67.27,67.27,0,0,0,676,43c-.44-2.29-.94-4.57-1.55-6.83-.12-.45-.25-.9-.38-1.35a19,19,0,0,0-1-2.43c-.41-.93-.81-1.84-1.16-2.79l-.39-1.05.14-.15a3.73,3.73,0,0,0,.92-2.73,3.91,3.91,0,0,0-1.25-2.5c-3.25-3.22-6.48-6.8-10.59-8.92a28.66,28.66,0,0,0-5.8-2.28,30.47,30.47,0,0,0-5.69-.88C648.61,11,648,11,647.32,11h-.19a12.66,12.66,0,0,0-3,.46Zm4.18,6.92c1.08.09,2.14.22,3.21.39a20.5,20.5,0,0,1,3,.77,26.72,26.72,0,0,1,4.05,2,55.23,55.23,0,0,1,6.2,5.55,3.58,3.58,0,0,0-.33,3.05c.71,2,1.56,3.95,2.41,5.91a21.74,21.74,0,0,1,.93,3.17c.21.81.39,1.62.56,2.44a71.06,71.06,0,0,1,1.07,7.55,68,68,0,0,1,.25,7.28,48.12,48.12,0,0,1-1.16,7.16c-.59,2.51-1.36,5-2.18,7.39-1,2.86-2,5.73-3.14,8.52a50.49,50.49,0,0,1-4,7.52c-.83,1.19-1.68,2.37-2.61,3.49a44.26,44.26,0,0,1-3.39,3.59A27.31,27.31,0,0,1,649.07,97a21.55,21.55,0,0,1-3.75,1.45,27.68,27.68,0,0,1-5.75.39,23.56,23.56,0,0,1-4.09-.66,24.26,24.26,0,0,1-3.86-2.06A32.17,32.17,0,0,1,627,92.21a20.47,20.47,0,0,1-1.69-2.48,46.74,46.74,0,0,1-2.14-6.84,78.85,78.85,0,0,1-1-11.37c-.08-3.74,0-7.51.19-11.25a66,66,0,0,1,.89-7.41c.24-1.28.66-2.55,1-3.81s.7-2.3,1.07-3.45a85,85,0,0,1,7.39-16.52,38.26,38.26,0,0,1,4.89-5.88,30.59,30.59,0,0,1,4.84-3.33,22.93,22.93,0,0,1,3.81-1.4,12.16,12.16,0,0,1,2.09-.13Z"/><path class="cls-1" d="M696.28,1.51a3.84,3.84,0,0,0-2.56,1.28l-.56.82a3.9,3.9,0,0,0-.38,2c-.09,2.11-.08,4.2-.07,6.3,0,3.07,0,6.15,0,9.22,0,2.82.06,5.63.14,8.45q.23,8.94.46,17.86c.09,3.35.11,6.71.27,10.06q.32,7,.65,14c.15,3.33.22,6.68.59,10l.9,7.92c.19,1.65.49,3.27.78,4.91q.51,2.91,1.09,5.81a48.11,48.11,0,0,0,1.84,7.6,3.88,3.88,0,1,0,7.32-2.56,34.08,34.08,0,0,1-1.11-4.31c-.35-1.81-.71-3.61-1-5.42s-.76-3.83-1-5.76c-.31-2.72-.62-5.45-.94-8.17-.14-1.2-.29-2.39-.35-3.6-.41-8.16-.92-16.32-1.16-24.48q-.39-13.71-.79-27.42c-.08-2.65-.06-5.31-.08-8,0-4.32-.16-8.66,0-13a3.64,3.64,0,0,0-1.28-2.57,3.87,3.87,0,0,0-2.52-.94Z"/><path class="cls-1" d="M705.08,14c-2.91.07-5.81.14-8.72.18-3.28,0-6.55.25-9.82.36a3.44,3.44,0,0,0,.53,6.85c2.33-.08,4.67-.2,7-.29s4.57-.07,6.86-.12c4.19-.08,8.38-.3,12.57-.11A53.37,53.37,0,0,1,720.63,22c2,.42,3.91.88,5.83,1.48a20.74,20.74,0,0,1,3.7,1.72,10.68,10.68,0,0,1,1.25,1.07,14.1,14.1,0,0,1,1,1.55,20.8,20.8,0,0,1,1.28,3.91,43.37,43.37,0,0,1,.61,9.38,37.21,37.21,0,0,1-1.78,8.35c-.71,2-1.51,4-2.34,6-.94,2.24-1.88,4.48-2.91,6.67s-2.21,4.3-3.43,6.38-2.39,4-3.66,5.94c-3.57,5.2-7.56,10.1-11.17,15.27-.78,1.13-1.65,2.24-2.36,3.43l-2,3.32c-1.24,2.06-2.36,4.24-3.39,6.41a3.7,3.7,0,1,0,6.62,3.29c1.63-3.3,3.51-6.46,5.41-9.61.9-1.33,1.78-2.68,2.73-4l4-5.48c2.48-3.38,5-6.77,7.21-10.31A97.44,97.44,0,0,0,735,62.25c2.18-5.21,4.47-10.41,5.66-16a36.75,36.75,0,0,0,.67-7.41,42.31,42.31,0,0,0-.53-6.93c-.7-4.36-2.19-8.88-5.72-11.77a18.71,18.71,0,0,0-5.58-3,55.5,55.5,0,0,0-7-1.92,54.11,54.11,0,0,0-7.81-1.17C712.83,14,711,14,709.2,14c-1.37,0-2.74,0-4.12.07Zm8.86,6.89.31,0-.31,0Z"/><path class="cls-1" d="M751.75,22.5c0,.13,0,.26,0,.39a5.29,5.29,0,0,0,0,1.19c-.15,10.82-.44,21.64-.7,32.47,0,1.34-.07,2.69-.09,4,0,6.23-.3,12.46-.07,18.68.1,2.76.36,5.51.54,8.26a30.52,30.52,0,0,0,1.52,8.37,21.72,21.72,0,0,0,4.49,6.83,19.34,19.34,0,0,0,6.86,4.87,28.82,28.82,0,0,0,9.72,1.86,38.23,38.23,0,0,0,10.45-1,58.57,58.57,0,0,0,10.52-3.89c1.74-.78,3.45-1.6,5.13-2.5s3.09-1.8,4.62-2.74c3.12-1.92,6.29-3.75,9.45-5.6.9-.53,1.79-1.07,2.68-1.62a42.46,42.46,0,0,0,5-3.36,4.08,4.08,0,0,0,1.64-2.47,3.88,3.88,0,0,0-3.06-4.54,3.75,3.75,0,0,0-2.91.59,47.22,47.22,0,0,1-5.65,3.74c-1.12.69-2.26,1.36-3.39,2l-4.61,2.7c-3.08,1.82-6.08,3.8-9.26,5.46a65.84,65.84,0,0,1-13,5,37.92,37.92,0,0,1-8.31.53,27.33,27.33,0,0,1-5.39-1,18.22,18.22,0,0,1-2.51-1.23,21.62,21.62,0,0,1-3-2.67,22,22,0,0,1-2-2.94,17.54,17.54,0,0,1-.87-2.56,52.53,52.53,0,0,1-.62-5.73c-.17-2.57-.41-5.14-.51-7.72-.22-5.23-.06-10.46,0-15.69,0-3.6.11-7.21.19-10.81.2-9.51.42-19,.54-28.52a3.71,3.71,0,0,0-3-3.37,3.05,3.05,0,0,0-.67-.07,3.72,3.72,0,0,0-3.71,3Z"/><path class="cls-1" d="M814,3.94c-2.12.16-4.22.48-6.31.79q-2.62.38-5.23.83l-6.87,1.15c-1.38.24-2.76.55-4.13.84-3.57.75-7.16,1.44-10.72,2.28q-7.44,1.8-14.89,3.57L746.72,18a3.31,3.31,0,0,0-1.93,1.7,3.43,3.43,0,0,0,1.54,4.58,3.73,3.73,0,0,0,2.65.16c11.71-2.82,23.44-5.58,35.16-8.38,4.71-.94,9.4-2,14.14-2.75,2.68-.43,5.36-.85,8.06-1.25s5.42-.82,8.16-1a3.62,3.62,0,0,0,3.3-3.84,3.63,3.63,0,0,0-3.59-3.31Z"/><path class="cls-1" d="M831.26,17.42c-1.89.43-3.77,1-5.64,1.46l-6.15,1.65-10.42,2.81c-7.24,1.95-14.49,3.89-21.71,5.9q-17.54,4.88-35.05,9.8a3.52,3.52,0,0,0-.4,6.46,3.61,3.61,0,0,0,2.72.16q17.52-4.9,35.07-9.73c7.23-2,14.49-3.9,21.74-5.82,7.06-1.86,14.12-3.77,21.23-5.46l.12,0a4,4,0,0,0,2.5-1.25,3.7,3.7,0,0,0-.33-5.24,3.64,3.64,0,0,0-1.75-.85,3.53,3.53,0,0,0-.72-.08,3.63,3.63,0,0,0-1.21.21Z"/></g></g></svg>