<svg id="icon" xmlns="http://www.w3.org/2000/svg" viewBox="0 0 100 100"><title>icon-menu</title><g id="icon-menu"><path id="menu-bar-4" d="M78.94,78.86C78.61,73,44.83,75.24,38.71,75.2c-3.21,0-36.38-1.94-27.91,5.39,2.83,2.45,22.19.81,35.76.84s32.71,3.33,32.38-2.57Z"/><path id="menu-bar-3" d="M20.47,60.79c.68,5.95,35.7,2.15,42,2,4.15-.1,34.19.67,27.18-6.14-2.43-2.37-38.69-.35-42.35-.18-7.75.36-27.46-1.19-26.8,4.33Z"/><path id="menu-bar-2" d="M9.34,43.05c.59,5.85,24.85,2.33,40.4,1.88s36.48.34,27.68-6.61c-2.94-2.32-44.05-.81-50.95-.56-5.23.19-17.72-.59-17.13,5.29Z"/><path id="menu-bar-1" d="M90.56,21.62c-.53-6.61-32.26-3-38.06-3-4.28,0-32.58-2.69-33.59,3.85s9.51,3.34,12.88,3.21c7.78-.3,38.43-.69,45.95-.71,3.36,0,13.3,2.35,12.82-3.35Z"/></g></svg>