<svg id="icon" xmlns="http://www.w3.org/2000/svg" viewBox="0 0 100 100"><title>icon-join</title><path d="M21.81,29.87c-5.39.41-2.23,17.65-2.06,21.19.13,2.58.31,19.38,6.47,13.16,2.14-2.16-.1-10.22-.25-13.07-.19-3.61,1.56-21.72-4.17-21.27Z"/><path d="M31.9,10.92c-5.85.44-2.12,26-1.89,30.65.12,2.44-.33,27.68,6.61,21,2.32-2.23.58-9,.4-11.86-.34-5.23-.59-10.46-.84-15.7-.19-4,1.59-24.55-4.29-24.1Z"/><path d="M45.5.28c-6,.45-2.74,27.34-2.71,32.25,0,3.63-2.43,27.6,3.48,28.46s3-8.05,2.91-10.91c-.27-6.6-.07-13.21-.16-19.81-.08-6.38-.47-12.75-.49-19.13,0-2.85,2.13-11.26-3-10.86Z"/><path d="M60,10c-5.95.45-2.37,24.94-2.25,29.33.08,2.9-.88,23.89,6,19,2.39-1.69.66-7.72.51-10.28-.31-5.42-.28-10.85-.46-16.27C63.68,28.45,65.55,9.6,60,10Z"/><path d="M74.61,40.83C69.26,41.24,73,51,73.55,54c1.11,5.93,2.37,11.71.94,17.7C73.45,76.06,70.7,78.13,69,82c-1.89,4.33,1.05,7.58,4.8,4.11,4.38-4.06,6.93-11.83,7.45-17.48.41-4.52-.91-28.27-6.65-27.83Zm-.33,44.35c-.3.44,0,0,0,0Zm-.32.6Z"/><path d="M59.88,63c-6.28,3.86-16.4,4.44-23.66,4.91-8.76.57-14-.21-12.49,10.37,1,6.89,2.65,15.23,9.1,19,6.68,3.91,17,3,23.28-1.58,3.86-2.8,10.11-12.1,9.27-17.09-1.06-6.28-10.9-3-15-2.64-2.23.2-17.82.26-12.91,6.31,2.46,3,17-.36,20.77-.9-3.09,7.61-8.2,13-17,12.1-9.43-.91-11.43-11.29-11.8-19.34,7.74-.49,15.13-1.18,22.82-2.26,3-.42,9.1-1.14,11.11-3.8s.61-7.58-3.43-5.09Z"/></svg>