<svg id="icon" xmlns="http://www.w3.org/2000/svg" viewBox="0 0 100 100"><title>icon-subscribe</title><path d="M87.23,54c-2.5-1.95-4.91-3.78-7.53-5.59-1.55-1.07-3.06-2.24-4.57-3.37-.45-.34-5.26-3.86-2.81-2.22C64,37.08,56.25,30.63,47.83,25.11,42.54,21.63,31,9.17,28.36,19.65c-2.2,8.76-.18,21,.57,29.89.41,4.83,1.89,10.72,1,15.45-.75,3.89-.45,1.69-2.85,3.88a80.21,80.21,0,0,1-7.45,5.54c0-18.13-.89-36.2-1.19-54.31-.06-3.64,1.47-13.75-1-17-6-7.76-6.64,7.85-6.58,10.54C11.22,30.62,12,47.55,12.14,64.5c0,5.16-3,20.27,5.49,19.52,3.31-.29,6.9-4.07,9.32-6a53.88,53.88,0,0,1,7.89-4.71,171.8,171.8,0,0,0,18-10.66c1.8-1.17,6.58-5,8.31-4.81s7.15,5.21,8.42,6.1C58,68.63,46.08,75.36,35.23,81.63c-3,1.76-5.67,4.12-8.74,5.85-2.85,1.61-6.39,2.49-8.9,4.6-1.94,1.63-4,3.45-2.13,6.18,2.07,3,4.11.88,6.38-.2,12.91-6.12,25.11-14.17,37.86-20.88,3.41-1.79,6.69-3.77,10.19-5.39,2.49-1.15,7.61-2.21,9.33-4.54,3.94-5.35-6.11-10-9.41-12.22-1.54-1-6.29-5.17-9.3-7.16,2.39,1.6-2.45-1.79-2.39-1.74-3.43-2.29-9.32-6.7-13.58-9.72C40,33.22,35.75,32,35.61,26.18c15.29,8,29.07,20.54,43,30,2.07,1.38,4.52,5,7.31,4.66A3.69,3.69,0,0,0,87.23,54ZM38.54,41.08C44,45,49.36,48.9,54.82,52.78c-5.53,3.82-11.32,7.9-17.31,10.85-.31-8-1-16-1.61-24.06Q37.25,40.28,38.54,41.08Z"/></svg>