<svg id="icon" xmlns="http://www.w3.org/2000/svg" viewBox="0 0 100 100"><defs><style>.cls-1{stroke:#000;stroke-miterlimit:10;}</style></defs><title>icon-play</title><path class="cls-1" d="M77.43,42.53c-5.64-6.33-18.75-8.87-26.11-11.41-7-2.37-12.26-8.5-16.19-3.63-3.11,3.86.63,19.35,1,24.81,1.42,23,2.64,19.32,19.67,8.72C59.71,58.56,83.92,49.78,77.43,42.53ZM40.17,51.82c.6-1,1.15-1.8,1.8-2.76q-2.32,3.46,3.5-5Q40.29,57.08,40.17,51.82Zm-.76-15.61q-.05-3-.12-6.05A52.85,52.85,0,0,0,47.86,34a11.76,11.76,0,0,0-5.22,6.6C48.57,29,39.37,34.85,39.41,36.21Zm32.88,11c-6.35,4.46-13.74,7-20,11.59,28.52-41.49-8,1-3.27,2.26a86.62,86.62,0,0,0-7.87,5.5c-.87-6.45-.57-7.15,2.29-11.5q-1.39,1.79.48,3.84c9.34,4.63,16.47-27.14,6.71-22.12a2.06,2.06,0,0,0-.25-1.89C54.17,36.16,78.89,42.56,72.29,47.18Z"/><path class="cls-1" d="M97.75,40.25C94.67,19.8,63.94-.83,44.34,1.09,14.54,4-4.94,41.9,3.81,69.32,21.75,125.52,105.85,94.16,97.75,40.25ZM33.34,7.57C43.45,2.68,57,4.19,66,10.07,57.55,8,38.3,4.94,33.34,7.57ZM59.41,94.38C44.52,97.23,25,90.84,14.22,80,24,87.74,48.92,96.85,59.41,94.38Zm34.8-46.13C91.74,84.87,59.6,97.85,27.68,83.39-10.76,66,9.58,8.54,46.19,10.87,66.84,12.18,95.43,23.07,94.21,48.25Z"/></svg>