<svg id="icon" xmlns="http://www.w3.org/2000/svg" viewBox="0 0 100 100"><title>icon-learn</title><path d="M36.22,44.68c-1-10.59,4.53-22.63,17.2-22.08,9.84.42,9.19,10.45,4.74,16.55-3.1,4.25-6,5.31-9.8,8.1-3.57,2.59-3.66,6.55-3.76,10.68-.08,3.43-1.49,13.54,3.36,14.39,5.79,1,4.41-7,4.33-10.21,0-1.68-.9-7,.13-8.52.51-.77,3.17-1.31,4.06-1.91A34,34,0,0,0,66.62,40c4.71-9.42,2.28-21-8.66-24.15-9.39-2.69-21.66,3.26-26.55,11.53-2.61,4.42-3.33,10.17-2.88,15.22.18,2.06.11,4.71,2.32,5.78A3.77,3.77,0,0,0,36.22,44.68Zm16,9.18C52.28,53.71,52.39,53.42,52.25,53.86Zm.25-.65C52.52,53.09,53.08,52.35,52.5,53.21Z"/><path d="M49.07,75.62c-5.83,0-6.51,9-.88,10.19C55.64,87.45,56.88,75.62,49.07,75.62Z"/><path d="M83.6,27.17C81.08.86,49-7,30.3,9.6c-9.72,8.63-16.76,23.62-13,36.73.9,3.18,4.61,11.27,8.88,6.55,2.34-2.59-2.48-10.38-2.29-14-.14,3,.61-4.42.59-4.33A40,40,0,0,1,26,28.24a29,29,0,0,1,6.16-10c5.58-6.36,12.1-9,20.47-9.72C70.8,6.91,82.31,26,72.93,42c-4.24,7.2-14.31,10.54-14.67,19-.09,2.13-1,7.09-.06,9.08,1.72,3.53,5.81,3.17,7.43-.14,1.31-2.67-.95-7.16.25-9.78,1.68-3.67,8.29-7.44,11-10.79A30.49,30.49,0,0,0,83.6,27.17Z"/><path d="M63.36,84.16c-5.21-4.55-6.23,4.09-6.32,7-5.44-1.12-11.35.1-16.83.17,0-6.65-.65-13.3-.85-20-.11-3.61.87-11.22-1.36-14.31-3.9-5.4-6.81.5-6.68,4.57.21,6.7.43,13.46.85,20.15.27,4.33-1,12.34,2.28,15.54s12.08.88,16.39.74c3.5-.11,9.43,2.38,12.09-.12C65.34,95.7,65.68,86.22,63.36,84.16Zm-2.9,7.9C60.6,92.07,61.43,92.38,60.46,92.06Z"/></svg>