<svg id="icon" xmlns="http://www.w3.org/2000/svg" viewBox="0 0 100 100"><defs><style>.cls-1{stroke:#000;stroke-miterlimit:10;}</style></defs><title>icon-download</title><path class="cls-1" d="M28.2,48.39c3.22,3.87,7.66,7.9,10.46,11.85,2.28,3.21-5-1.78-.18,2.68,1.73,1.6,2.59-.08,3.84.47,3.28,1.43,4.82,6.74,7.67,8.06C55.45,74,64.08,59.66,67.23,56.34c4-4.16,17.28-16.51,11.18-23.17-2.77-3-7.46-1.51-11.23-1.65-7.6-.29-6-1.94-5.91-8.79.09-4.93,1.21-13.93-1.33-18.59s-8-2.9-12.53-2.51c-3.2.28-6.65-.19-9.78.28-4.43.66-3.84.89-3.63,4.58.4,7.26.48,14.57,1,21.83.44,6.64-.72,5.08-7.3,6.51-2.46.52-8.66,1.13-6.42,5C20.78,42.12,26.88,46.81,28.2,48.39Zm14.9,8c-1-.12-4.7-5.12-5.26-5.67,2.36-.36,14.29-5.52,15.51-3.57.63,1-3.29,3.27-4.24,4.08C48.56,51.72,43.76,56.47,43.11,56.4Zm26-7.73q-1.33,1.61-2.81,3.08c1.54-2,3.22-3.87,4.88-5.79Q70.17,47.36,69.09,48.67ZM44.4,6.8c2.56-.33,9.25-1.62,11.22.31C58.85,10.28,57,22.4,56.95,26.42c0,3.06-.7,6.84,1.71,9s10.87,1.83,14.08,1.91c-6.66,9.5-14.34,18.71-21.67,27.71-3-3.41-2.25-2.21-.59-5.27C51.69,57.57,55,55.5,57,53.73c2.69-2.48,7.31-5.14,7.93-8.72.42-2.4,0-4.13-2.64-4.43-1.76-.2-4.4,3.21-6,3.26-1.38,0-3-1.71-5-1.5,3.48-2.82,7-5.86,1.46-6.9a9.68,9.68,0,0,0-4.27.55c1.42-2,9.19-12,2.16-12,1.34-2,4.16-9.36-1.73-7.61,1.57-1.87,6.95-6.64,1.81-7.9C48.39,8,44.6,14,43.35,15.44,43.26,13,41.69,7.16,44.4,6.8Zm1.23,16.74a13.79,13.79,0,0,0-1.89,3C43.64,24.05,43.79,24.79,45.63,23.54ZM39,7.5c.5,8.38.84,16.29,1.06,24.55a7.38,7.38,0,0,0-.76.15c-1-8.14-.86-16.52-1.32-24.71ZM30.27,41.4c2.29-.19,7.34-.42,9.23-2.18.81-.75.23-2.63.86-3.23s1.82.61,2.39-.32c1.46-2.37,1.21-4.19,1.06-7.14a2.85,2.85,0,0,0,3.49,1.33C45.77,32.15,36.1,42.37,41,44.54c-3.17,2.12-3.37.91-5.21.75-3.78-.32-3.7-1.3-7.49-3.8Z"/><path class="cls-1" d="M82.92,87c-.13-7.3-2.16-8.68-8.64-7.92-7.55.89-15.27,2-22.88,3.37-2.77.49-5.44,1.06-8.23,1.4s-24.76,0-22.7,4.81c-3.23-.82-4.32,7.82-2.63,9.43,2.12,2,7.89.1,10.35-.15a138.26,138.26,0,0,1,16.26-.74c9.28.17,18.6-1.47,27.92-1.72,1.71,0,7.11,1.24,8,.81C83.22,95,83,89.37,82.92,87ZM25.07,94.38q-1.89.18-3.77.42c.29-1.34,1.09-3.54.53-4.93a7.75,7.75,0,0,0,3-.18c-.1,2.15,3,3.34,4.68,4.13Q27.27,94,25.07,94.38Zm18-1.17c.77-.27.58-.37,1.06.05Zm10.63-.56c-1.65.17-3.25.56-4.89.75,3.16-2,8.14-1.57,11.43-1.27Q57,92.37,53.73,92.65ZM76,91.25c-4.72.18-9.42.31-14.13.73,2-.44,13.16-1.77,13.63-4.42,1-5.65-13,0-14.74.11-.58.05-1.47-.93-2.16-.86-1.92.19-3.44.91-5.27,1.16s-4.43,1-6.16,1.2c-2.42.23-6.07.23-9,.41-1.66.1-6.38.65-7.57-.31,10.13-.35,20.33-2.16,30.32-3.85,4-.69,9.26-2.41,13.31-1.62.64.12,3,.17,3.31.49C78.92,85.8,77.88,91.18,76,91.25Z"/><path class="cls-1" d="M61.8,85.26Z"/><path class="cls-1" d="M61.8,85.26l.53-.11Z"/></svg>